<?xml version="1.0" encoding="utf-8"?>
<!-- Generator: Adobe Illustrator 27.2.0, SVG Export Plug-In . SVG Version: 6.00 Build 0)  -->
<svg version="1.1" id="Layer_1" xmlns="http://www.w3.org/2000/svg" xmlns:xlink="http://www.w3.org/1999/xlink" x="0px" y="0px"
	 viewBox="0 0 1915.7 1980.2" style="enable-background:new 0 0 1915.7 1980.2;" xml:space="preserve">
<style type="text/css">
	.st0{fill:#B2B5C0;}
	.st1{fill:#727A7D;}
	.st2{fill:#E0E1E1;stroke:#FFFFFF;stroke-width:2.126;}
	.st3{fill:#231F20;}
	.st4{fill:#FFFFFF;}
	.st5{enable-background:new    ;}
	.st6{fill:#ED1C24;enable-background:new    ;}
	.st7{fill:#CD2027;enable-background:new    ;}
	.st8{fill-rule:evenodd;clip-rule:evenodd;fill:#CD2027;enable-background:new    ;}
</style>
<g id="Base_00000173843502951245741010000002749508589855901603_">
	<rect x="772.9" y="535.5" class="st0" width="764" height="842.3"/>
	<rect x="664.1" y="1044.7" class="st0" width="1045.7" height="692.4"/>
	<rect x="564.3" y="505.8" class="st0" width="248.8" height="545.7"/>
	<rect x="1505.8" y="841.2" class="st0" width="150.4" height="222.4"/>
	<rect x="907" y="1191.4" class="st0" width="750.2" height="545.7"/>
	<path class="st0" d="M1709.8,1044.7v-37.4h-25.5v-9.4c0,0,46.9-19.8,41.3-69.7c0,0,2.8-56.9-57.5-76.4s-75-1.2-75-1.2l14.1,97
		l-9.7,119.9l70.7,8.6L1709.8,1044.7z"/>
	<rect x="800.9" y="1630.7" class="st1" width="195.2" height="94.5"/>
	<rect x="985.3" y="1716" class="st1" width="179.9" height="9.2"/>
</g>
<g id="MLOC-stores_00000140008108791389849040000014590951461268940433_">
	<rect id="_x33_21" x="586.9" y="524.6" class="st2" width="208.9" height="282.7"/>
	<rect id="_x33_22" x="795.8" y="640.1" class="st2" width="108.4" height="167.2"/>
	<polygon id="_x33_23" class="st2" points="1025.8,736.7 1025.8,549.4 795.8,549.4 795.8,640.1 904.2,640.1 904.2,807.3 
		1017.6,807.3 1025.8,807.3 1086.3,807.3 1086.3,736.7 	"/>
	<polygon id="_x33_01" class="st2" points="1025.8,549.4 1025.8,747.7 1086.3,747.7 1086.3,723.7 1243.8,723.7 1243.8,747.7 
		1289.9,747.7 1289.9,549.4 	"/>
	<polygon id="_x33_24" class="st2" points="1289.9,549.4 1522,549.4 1522,761.5 1501.1,761.5 1501.1,845.8 1274,845.8 1243,814 
		1243,747.7 1289.9,747.7 	"/>
	<path id="_x33_04" class="st2" d="M1314.2,1028.3v43.9h105.6v203.1h270.7v-253h-24.3v-30.1c0,0,46.1-23.2,43.6-62
		c0,0,3.4-49.1-46.9-58.5H1538v24.1c0,0,37.7,5.2,31.8,42.2c0,0,2.5,34.4-39.4,37v52.5L1314.2,1028.3z"/>
	<path id="_x33_06" class="st2" d="M1225.9,1167.4h-70l-55.9-75.7c0,0,27.9-43,22.3-63.4h103.5L1225.9,1167.4L1225.9,1167.4z"/>
	<polygon id="_x33_16" class="st2" points="1243,1275.3 1230.7,1262.7 1161.7,1377.7 1166.7,1721.7 1696.6,1721.7 1690.5,1275.3 
		1419.8,1275.3 	"/>
	<polygon id="_x33_05" class="st2" points="1314.2,1028.3 1225.9,1028.3 1225.9,1167.4 1155.9,1167.4 1230.7,1262.7 1243,1275.3 
		1419.8,1275.3 1419.8,1072.2 1314.2,1072.2 	"/>
	<polygon id="_x33_08" class="st2" points="911.2,1616.2 1062,1616.2 1062,1725.2 976.5,1725.2 976.5,1705.7 960.3,1705.7 
		960.3,1670.7 944.7,1670.7 944.7,1660.9 930.4,1660.9 919.1,1649.2 908.5,1638.4 	"/>
	<polygon id="CM" class="st2" points="684.9,1559.2 684.9,1721.7 809.8,1721.7 809.8,1702.2 821.8,1702.2 821.8,1674.7 843,1674.7 
		843,1664.4 853.1,1664.4 853.1,1652.9 860.9,1644.9 860.9,1559.2 	"/>
	<path id="_x33_07" class="st2" d="M976.5,1377.7V1172c0,0,43.6,0,48.6-11.2l136.6,216.9L976.5,1377.7L976.5,1377.7z"/>
	<rect id="_x33_10" x="684.9" y="1204.7" class="st2" width="124.9" height="134.3"/>
	<path id="_x33_11" class="st2" d="M684.9,1204.7v-129.1l103.9-24.1c0,0-6.7,34.4,20.9,56.8v96.4L684.9,1204.7L684.9,1204.7z"/>
	<rect id="_x33_29" x="581" y="888.9" class="st2" width="124.9" height="146"/>
	<path id="_x33_28" class="st2" d="M705.9,1034.9l75.4-7.4c0,0-5-78.2,31.8-111.4l-32.7-27.2h-74.6L705.9,1034.9L705.9,1034.9z"/>
	<path id="K312" class="st2" d="M941.3,923.3h35.2l4.2-46.5c0,0-38.5-3.4-50.3,5.2L941.3,923.3z"/>
	<rect id="K313" x="1118.1" y="895.8" class="st2" width="48.6" height="68.9"/>
	<polygon id="_x33_08_00000133529615622377950530000008296773918864159664_" class="st2" points="1161.7,1377.7 947.2,1377.7 
		947.2,1529.2 919.2,1529.2 919.2,1559.2 931.3,1559.2 931.3,1589.5 984.1,1589.5 984.1,1571.4 1167.1,1571.4 1167.1,1559.2 
		1167.1,1551.6 1167.1,1539.6 1167.1,1529.2 	"/>
	<polygon id="_x33_09" class="st2" points="835.8,1529.2 835.8,1355.4 809.8,1355.4 809.8,1339 684.9,1339 684.9,1559.2 
		710.9,1559.2 809.8,1559.2 919.2,1559.2 919.2,1529.2 	"/>
</g>
<g id="MNOINT-logosnumbers_00000064352126871938508210000003203622340352475800_">
	<g>
		<path class="st3" d="M1635.5,879.8c20.7,0,38.1-17.4,38.1-38.6c0-21.2-16.9-38.6-38.1-38.6c-20.7,0-38.1,17.4-38.1,38.6
			C1597.9,862.4,1614.9,879.8,1635.5,879.8"/>
		<g>
			<path class="st4" d="M1650.1,843.1c0-1.9-2.8-1.9-2.8,0v2.4l0,0h-4.7c0.5-0.5,0.5-1,0.9-1.4c0.5-0.5,0.5-1.4,0-1.9
				c0-0.5-0.5-0.5-0.9-1c-1.9-1-3.3-1.9-4.7-2.9c-1.9-1-3.3,1.9-1.4,2.4c0.9,0.5,2.3,1.4,3.3,1.9c-0.5,1-1.4,1.9-1.9,2.9
				c0,0-0.9,1-0.9,2.4c0,1.9,1.4,2.9,2.8,2.9h7.5c1.4,0,2.3-1,2.8-2.4V848L1650.1,843.1L1650.1,843.1z"/>
			<path class="st4" d="M1642.6,817.1c2.3,0,4.7,1.9,4.7,4.8s-1.9,4.8-4.7,4.8c-2.8,0-4.7-1.9-4.7-4.8
				C1638.4,819,1640.2,817.1,1642.6,817.1"/>
			<path class="st4" d="M1654.3,845.1c1.9,0,3.3,1.4,3.3,3.4s-1.4,3.4-3.3,3.4s-3.3-1.4-3.3-3.4C1651,847,1652.4,845.1,1654.3,845.1
				"/>
			<path class="st4" d="M1645.9,837.3c-2.3-1.4-4.7-2.9-6.6-4.3v-5.8c0-1,0-1.9-0.5-2.4c-1.4-2.4-3.8-2.4-5.6-1.4
				c-4.2,1.9-8.5,4.3-12.7,6.3c-0.9,0.5-1.9,1.4-1.9,2.4l-4.7,15.9h7.5v15c0,1.4,0.9,2.4,2.3,2.4s2.3-1,2.3-2.4v-15h7.5l-4.2-13.5
				c1.9-1,3.8-1.9,5.6-2.9v1.9c0,1,0,2.4,0.9,2.9c2.3,1.4,5.2,2.9,7.5,4.8C1645.9,842.2,1647.8,838.8,1645.9,837.3"/>
		</g>
		<rect x="1633.7" y="854.2" class="st4" width="22.6" height="2.4"/>
	</g>
	<g>
		<path class="st3" d="M1549.6,879.8c20.7,0,37.6-17.4,37.6-38.6c0-21.2-16.9-38.6-37.6-38.6S1512,820,1512,841.2
			S1529,879.8,1549.6,879.8"/>
		<path class="st4" d="M1540.2,848.4v12.1c0,0.5,0,1-0.5,1s-0.5,0.5-0.9,0.5s-0.9,0-0.9-0.5s-0.5-0.5-0.5-1v-12.1h-4.2l4.7-15.9
			h-0.9c-0.5,1.9-0.9,3.4-1.4,4.3c-0.5,1-0.5,2.4-0.9,3.4c-0.5,1-0.5,1.4-0.5,1.9s-0.5,1-1.4,1h-0.5c-0.5,0-0.9-0.5-0.9-1.4v-0.5
			c0,0,0-0.5,0.5-1c0-0.5,0.5-1.4,0.5-2.4s0.5-1.9,0.9-3.4c0.5-1,0.5-2.4,0.9-3.4c0.5-1,0.5-1.4,1.4-2.4c0.9-0.5,1.4-1,2.3-1h5.2
			c0.9,0,1.9,0.5,2.3,1c0.5,0.5,1.4,1.4,1.4,2.4c0.5,1,0.5,2.4,0.9,3.4c0.5,1,0.5,2.4,0.9,3.4c0.5,1,0.5,1.9,0.5,2.4s0.5,1,0.5,1
			v0.5c0,0.5-0.5,1-0.9,1.4h-0.5c-0.5,0-0.9-0.5-1.4-1c0,0-0.5-1-0.5-1.9c-0.5-1-0.5-1.9-0.9-3.4c-0.5-1-0.9-2.4-1.4-4.3h-0.9
			l4.7,15.9h-4.2v12.1c0,0.5,0,1-0.5,1c-0.5,0.5-0.5,0.5-0.9,0.5s-0.9,0-0.9-0.5c-0.5-0.5-0.5-0.5-0.5-1v-12.1H1540.2z"/>
		<path class="st4" d="M1540.2,827.2c0.9,0,1.9-0.5,2.3-1c0.5-0.5,0.9-1.4,0.9-2.4s-0.5-1.9-0.9-2.4c-0.5-0.5-1.4-1-2.3-1
			s-1.9,0.5-2.3,1c-0.5,0.5-0.9,1.4-0.9,2.4s0.5,1.9,0.9,2.4C1538.8,826.7,1539.3,827.2,1540.2,827.2"/>
		<path class="st4" d="M1556.7,827.7c-0.9,0-2.3,0.5-2.8,1.4c-0.9,1-1.4,1.9-1.4,2.9v10.6c0,0.5,0,1,0.5,1s0.5,0.5,0.9,0.5
			c0.5,0,0.9,0,0.9-0.5c0.5-0.5,0.5-0.5,0.5-1V833h0.9v26.5c0,0.5,0.5,1,0.5,1.4c0.5,0.5,0.9,0.5,1.4,0.5s0.9,0,1.4-0.5
			s0.5-1,0.5-1.4v-15h0.9V860c0,0.5,0,1,0.5,1.4s0.9,0.5,1.4,0.5s0.9,0,1.4-0.5s0.5-1,0.5-1.4v-26.5h0.9v9.7c0,0.5,0,1,0.5,1
			c0.5,0.5,0.5,0.5,0.9,0.5c0.5,0,0.9,0,0.9-0.5c0.5-0.5,0.5-0.5,0.5-1v-10.6c0-1-0.5-2.4-1.4-2.9c-0.9-1-1.9-1.4-2.8-1.4h-7.5
			L1556.7,827.7L1556.7,827.7z"/>
		<path class="st4" d="M1560.4,827.2c0.9,0,1.9-0.5,2.3-1c0.5-0.5,0.9-1.4,0.9-2.4s-0.5-1.9-0.9-2.4c-0.5-0.5-1.4-1-2.3-1
			s-1.9,0.5-2.3,1c-0.5,0.5-0.9,1.4-0.9,2.4s0.5,1.9,0.9,2.4C1559,826.7,1559.5,827.2,1560.4,827.2"/>
	</g>
	<g>
		<path class="st3" d="M1597.3,801.1c20.7,0,37.6-17.4,37.6-38.6c0-21.2-16.9-38.6-37.6-38.6s-37.6,17.4-37.6,38.6
			C1559.7,783.8,1576.6,801.1,1597.3,801.1"/>
		<path class="st4" d="M1618,774.6l-3.8,1.9l-5.6-13.5h-14.1v-2.9h10.3v-3.9h-10.3l-0.5-8.7c1.4-0.5,2.8-2.4,2.8-3.9
			c0-2.4-1.9-4.3-4.2-4.3c-2.3,0-4.2,1.9-4.2,4.3c0,1.9,0.9,3.4,2.3,3.9l0.9,19.8h15l6.6,14.5l7.5-3.4L1618,774.6z"/>
		<path class="st4" d="M1594.5,782.3c-6.1,0-11.3-5.3-11.3-11.6c0-3.9,1.9-7.2,4.2-9.2l-0.5-4.3c-4.7,2.4-8,7.7-8,13.5
			c0,8.7,6.6,15.4,15,15.4c5.6,0,10.8-3.4,13.2-8.2l-2.3-4.8C1604.4,778.4,1600.1,782.3,1594.5,782.3"/>
	</g>
	<g>
		<path class="st3" d="M1499.2,1034.9c20.8,0,37.7-17.4,37.7-38.8c0-21.3-17-38.8-37.7-38.8c-20.8,0-37.7,17.4-37.7,38.8
			C1461.5,1017.9,1478.5,1034.9,1499.2,1034.9"/>
		<path class="st4" d="M1475.6,997.6h7.1l-3.8-10.2l0,0L1475.6,997.6z M1477.5,985h3.3l8.5,22.3h-3.3l-2.4-6.8h-9l-2.4,6.8h-2.8
			L1477.5,985z"/>
		<polygon class="st4" points="1493.5,987.4 1486,987.4 1486,985 1503.5,985 1503.5,987.4 1496.4,987.4 1496.4,1006.8 
			1493.5,1006.8 		"/>
		<polygon class="st4" points="1505.8,985 1509.6,985 1516.7,1003.4 1523.3,985 1527.5,985 1527.5,1006.8 1524.7,1006.8 
			1524.7,988.4 1524.7,988.4 1517.6,1006.8 1515.2,1006.8 1508.6,988.4 1508.6,988.4 1508.6,1006.8 1505.8,1006.8 		"/>
	</g>
	<g>
		<path class="st3" d="M891.7,1349.6c21.6,0,39.1-18,39.1-40.2s-17.5-40.2-39.1-40.2s-39.1,18-39.1,40.2
			C852.6,1331.6,870.1,1349.6,891.7,1349.6"/>
		<path class="st4" d="M905.6,1302.1h-28.3c-2.2,0-4.5,1.8-4.5,4.6v26.8c0,2.3,1.8,4.6,4.5,4.6h28.3c2.2,0,4.5-1.8,4.5-4.6v-26.8
			C910.1,1303.9,908.3,1302.1,905.6,1302.1 M906.5,1333c0,0.5-0.4,0.9-0.9,0.9h-28.3c-0.4,0-0.9-0.5-0.9-0.9v-26.8
			c0-0.5,0.4-0.9,0.9-0.9h28.3c0.4,0,0.9,0.5,0.9,0.9V1333z"/>
		<path class="st4" d="M883.6,1309c0.9,0,1.8,0.9,1.8,1.8s-0.9,1.8-1.8,1.8c-0.9,0-1.8-0.9-1.8-1.8S882.7,1309,883.6,1309"/>
		<path class="st4" d="M891.7,1309c0.9,0,1.8,0.9,1.8,1.8s-0.9,1.8-1.8,1.8c-0.9,0-1.8-0.9-1.8-1.8S890.8,1309,891.7,1309"/>
		<path class="st4" d="M899.8,1309c0.9,0,1.8,0.9,1.8,1.8s-0.9,1.8-1.8,1.8c-0.9,0-1.8-0.9-1.8-1.8S898.9,1309,899.8,1309"/>
		<path class="st4" d="M885.8,1313.1h-4.5c-0.4,0-1.3,0.5-1.3,1.4v6.5c0,0.5,0.4,0.9,0.9,1.4v7.8c0,0.5,0.4,1.4,1.3,1.4
			s1.3-0.5,1.3-1.4v-8.3h0.4v7.8c0,0.5,0.4,1.4,1.3,1.4c0.4,0,1.3-0.5,1.3-1.4v-7.8c0.4,0,0.9-0.5,0.9-1.4v-6.5
			C887.2,1313.6,886.7,1313.1,885.8,1313.1"/>
		<path class="st4" d="M893.9,1313.1h-4.5c-0.4,0-1.3,0.5-1.3,1.4v6.5c0,0.5,0.4,0.9,0.9,1.4v7.8c0,0.5,0.4,1.4,1.3,1.4
			c0.4,0,1.3-0.5,1.3-1.4v-8.3h0.4v7.8c0,0.5,0.4,1.4,1.3,1.4c0.4,0,1.3-0.5,1.3-1.4v-7.8c0.4,0,0.9-0.5,0.9-1.4v-6.5
			C895.3,1313.6,894.8,1313.1,893.9,1313.1"/>
		<path class="st4" d="M902,1313.1h-4.5c-0.4,0-1.3,0.5-1.3,1.4v6.5c0,0.5,0.4,0.9,0.9,1.4v7.8c0,0.5,0.4,1.4,1.3,1.4
			c0.4,0,1.3-0.5,1.3-1.4v-8.3h0.4v7.8c0,0.5,0.4,1.4,1.3,1.4c0.4,0,1.3-0.5,1.3-1.4v-7.8c0.4,0,0.9-0.5,0.9-1.4v-6.5
			C903.4,1313.6,902.5,1313.1,902,1313.1"/>
		<path class="st4" d="M889.9,1287.3l-5.8-6c-0.9-0.9-2.2-0.9-3.1,0l-5.8,6c-0.9,0.9-0.9,2.3,0,3.2c0.9,0.9,2.2,0.9,3.1,0l1.8-1.8
			v8.3c0,1.4,0.9,2.3,2.2,2.3s2.2-0.9,2.2-2.3v-8.3l1.8,1.8c0.9,0.9,2.2,0.9,3.1,0C890.8,1289.6,890.8,1288.2,889.9,1287.3"/>
		<path class="st4" d="M908.3,1289.6c-0.9-0.9-2.2-0.9-3.1,0l-1.8,1.8v-8.3c0-1.4-0.9-2.3-2.2-2.3s-2.2,0.9-2.2,2.3v8.3l-1.8-1.8
			c-0.9-0.9-2.2-0.9-3.1,0s-0.9,2.3,0,3.2l5.8,6l0.4,0.5c0.9,0.5,1.8,0.5,2.7-0.5l5.8-6C909.2,1292.4,909.2,1290.5,908.3,1289.6"/>
	</g>
	<g>
		<path class="st3" d="M1289.9,1025.1c21.6,0,39.1-18,39.1-40.2s-17.5-40.2-39.1-40.2s-39.1,18-39.1,40.2
			S1268.4,1025.1,1289.9,1025.1"/>
		<path class="st4" d="M1303.9,977.6h-28.3c-2.2,0-4.5,1.8-4.5,4.6v26.8c0,2.3,1.8,4.6,4.5,4.6h28.3c2.2,0,4.5-1.8,4.5-4.6v-26.8
			C1308.4,979.4,1306.6,977.6,1303.9,977.6 M1304.8,1008.5c0,0.5-0.4,0.9-0.9,0.9h-28.3c-0.4,0-0.9-0.5-0.9-0.9v-26.8
			c0-0.5,0.4-0.9,0.9-0.9h28.3c0.4,0,0.9,0.5,0.9,0.9V1008.5z"/>
		<path class="st4" d="M1281.8,984.5c0.9,0,1.8,0.9,1.8,1.8c0,0.9-0.9,1.8-1.8,1.8s-1.8-0.9-1.8-1.8S1280.9,984.5,1281.8,984.5"/>
		<path class="st4" d="M1289.9,984.5c0.9,0,1.8,0.9,1.8,1.8c0,0.9-0.9,1.8-1.8,1.8s-1.8-0.9-1.8-1.8S1289,984.5,1289.9,984.5"/>
		<path class="st4" d="M1298,984.5c0.9,0,1.8,0.9,1.8,1.8c0,0.9-0.9,1.8-1.8,1.8s-1.8-0.9-1.8-1.8S1297.1,984.5,1298,984.5"/>
		<path class="st4" d="M1284.1,988.7h-4.5c-0.4,0-1.3,0.5-1.3,1.4v6.5c0,0.5,0.4,0.9,0.9,1.4v7.8c0,0.5,0.4,1.4,1.3,1.4
			s1.3-0.5,1.3-1.4v-8.3h0.4v7.8c0,0.5,0.4,1.4,1.3,1.4c0.4,0,1.3-0.5,1.3-1.4v-7.8c0.4,0,0.9-0.5,0.9-1.4v-6.5
			C1285.4,989.1,1285,988.7,1284.1,988.7"/>
		<path class="st4" d="M1292.2,988.7h-4.5c-0.4,0-1.3,0.5-1.3,1.4v6.5c0,0.5,0.4,0.9,0.9,1.4v7.8c0,0.5,0.4,1.4,1.3,1.4
			c0.4,0,1.3-0.5,1.3-1.4v-8.3h0.4v7.8c0,0.5,0.4,1.4,1.3,1.4c0.4,0,1.3-0.5,1.3-1.4v-7.8c0.4,0,0.9-0.5,0.9-1.4v-6.5
			C1293.5,989.1,1293.1,988.7,1292.2,988.7"/>
		<path class="st4" d="M1300.3,988.7h-4.5c-0.4,0-1.3,0.5-1.3,1.4v6.5c0,0.5,0.4,0.9,0.9,1.4v7.8c0,0.5,0.4,1.4,1.3,1.4
			c0.4,0,1.3-0.5,1.3-1.4v-8.3h0.4v7.8c0,0.5,0.4,1.4,1.3,1.4c0.4,0,1.3-0.5,1.3-1.4v-7.8c0.4,0,0.9-0.5,0.9-1.4v-6.5
			C1301.6,989.1,1300.7,988.7,1300.3,988.7"/>
		<path class="st4" d="M1288.1,962.8l-5.8-6c-0.9-0.9-2.2-0.9-3.1,0l-5.8,6c-0.9,0.9-0.9,2.3,0,3.2s2.2,0.9,3.1,0l1.8-1.8v8.3
			c0,1.4,0.9,2.3,2.2,2.3s2.2-0.9,2.2-2.3v-8.3l1.8,1.8c0.9,0.9,2.2,0.9,3.1,0C1289,965.1,1289,963.7,1288.1,962.8"/>
		<path class="st4" d="M1306.6,965.1c-0.9-0.9-2.2-0.9-3.1,0l-1.8,1.8v-8.3c0-1.4-0.9-2.3-2.2-2.3s-2.2,0.9-2.2,2.3v8.3l-1.8-1.8
			c-0.9-0.9-2.2-0.9-3.1,0s-0.9,2.3,0,3.2l5.8,6l0.4,0.5c0.9,0.5,1.8,0.5,2.7-0.5l5.8-6C1307.5,967.9,1307.5,966,1306.6,965.1"/>
	</g>
	<path class="st3" d="M524.5,769.3c22,0,39.8-18.3,39.8-40.9s-17.8-40.9-39.8-40.9s-39.8,18.3-39.8,40.9
		C484.2,750.5,502.1,769.3,524.5,769.3"/>
	<path class="st4" d="M543.7,723.8l-3.7-10.3c-0.9-1.9-2.3-3.8-5.5-3.8H529v-2.3c0-0.9-0.5-1.4-1.4-1.4h-3.2h-3.2
		c-0.9,0-1.4,0.5-1.4,1.4v2.8H514c-2.7,0-4.6,1.4-5.5,3.8l-3.7,10.3c-1.4,0-4.1,1.9-4.1,5.6v12.7h3.7v4.2c0,5.2,6.9,5.2,6.9,0v-4.2
		H524h12.8v4.2c0,5.2,6.9,5.2,6.9,0v-4.2h3.7v-12.7C547.8,726.1,545.1,724.2,543.7,723.8 M508,734.6c-1.8,0-3.2-1.4-3.2-3.3
		s1.4-3.3,3.2-3.3s3.2,1.4,3.2,3.3C511.7,732.7,509.9,734.6,508,734.6 M524.5,723.8L524.5,723.8h-15.1l2.7-8
		c0.5-0.9,0.9-1.9,2.3-1.9h10.1l0,0h10.1c1.4,0,1.8,0.9,2.3,1.9l2.7,8H524.5z M540.5,734.6c-1.8,0-3.2-1.4-3.2-3.3s1.4-3.3,3.2-3.3
		s3.2,1.4,3.2,3.3C543.7,732.7,542.3,734.6,540.5,734.6"/>
	<path class="st3" d="M759.5,1685.4c24.1,0,43.8-20.2,43.8-45s-19.6-45-43.8-45c-24.1,0-43.8,20.2-43.8,45
		C715.7,1665.3,735.4,1685.4,759.5,1685.4"/>
	<g>
		<path class="st3" d="M965,1142.8c23.1,0,41.7-19.1,41.7-42.8c0-23.8-18.6-42.8-41.7-42.8c-23.1,0-41.7,19.1-41.7,42.8
			C923.3,1123.4,941.9,1142.8,965,1142.8"/>
		<path class="st4" d="M971.9,1102.3c-1.6-2-2.9-4-4.9-6l2.6-5.7l6.5,3c1,0.3,2.3,0,2.9-1c0.3-1,0-2.3-1-3l-8.8-4
			c-0.3,0-0.3,0-0.7,0s-0.3-0.3-0.7-0.3c-1.6-0.7-3.9,0-4.6,1.7l-2,4.4c-2.3-1.7-4.9-3-7.8-3.7v-3.3c0-4-3.3-7.4-7.2-7.4
			s-7.2,3.3-7.2,7.4v39.2h2.9v-7.7h8.1v7.7h2.9v-27.4c4.9,2,8.1,6,11.7,11.4c5.5,7.7,11.7,16.1,24.8,16.1v-8
			C981.3,1115.3,976.8,1109.3,971.9,1102.3 M942.6,1098.6h8.1v5.4h-8.1V1098.6z M942.6,1089.9h8.1v5.4h-8.1V1089.9z M946.8,1079.8
			c2.3,0,4.2,2,4.2,4.4v2.7h-8.1v-2.7C942.6,1081.9,944.5,1079.8,946.8,1079.8 M942.6,1107.3h8.1v5.4h-8.1V1107.3z"/>
		<path class="st4" d="M970.9,1083.9c2-0.7,2.9-3,2.3-5c-0.7-2-2.9-3-4.9-2.3s-2.9,3-2.3,5C967,1083.5,969,1084.5,970.9,1083.9"/>
	</g>
	<g>
		<path class="st3" d="M643.4,903.1c24.1,0,43.8-20.2,43.8-45s-19.6-45-43.8-45c-24.1,0-43.8,20.2-43.8,45
			C599.7,882.9,619.3,903.1,643.4,903.1"/>
		<path class="st4" d="M660.2,846c0.2,0.2,0.5,0.3,0.8,0.3s0.6-0.1,0.8-0.3c3.3-3.4,3.3-8.8,0-12.1c-3.3-3.4-8.6-3.4-11.8,0
			c-0.4,0.4-0.4,1.1,0,1.6c0.4,0.4,1.1,0.4,1.5,0c2.4-2.5,6.3-2.5,8.8,0c2.4,2.5,2.4,6.5,0,9C659.7,844.9,659.7,845.6,660.2,846
			L660.2,846z"/>
		<path class="st4" d="M636.9,884.5c0.2,0.2,0.5,0.3,0.8,0.3s0.6-0.1,0.8-0.3l0.2-0.2c0.9-0.9,2.1-1.6,3.3-2h0.1
			c1.6-0.5,3.1-1.4,4.3-2.6l13.9-14.3c1.5-1.5,1.5-4,0-5.5c-0.5-0.5-1.1-0.8-1.6-1c0.2-0.5,0.4-1.1,0.4-1.7c0-1.1-0.4-2.1-1.1-2.8
			c-0.4-0.4-1-0.8-1.5-1c1.2-1.5,1.1-3.8-0.3-5.2c-0.4-0.4-0.9-0.7-1.4-0.9l3.7-3.8c0.8-0.8,1.2-1.9,1.2-3s-0.4-2.2-1.2-3
			c-1.6-1.6-4.3-1.6-5.9,0l-15.5,15.9l0.7-3.2c0.7-2.9-1-5.8-3.9-6.6c-1.2-0.3-2.5,0.3-3,1.5l-4.8,12.3c-0.7,1.7-1.1,3.5-1.2,5.3
			l-0.2,2.7c-0.1,0.9-0.4,1.8-1.1,2.5l-0.6,0.6c-0.4,0.4-0.4,1.1,0,1.6L636.9,884.5z"/>
	</g>
	<g>
		<g class="st5">
			<path d="M1424.6,1666.4c0,0,2.2,2.6,5.4,2.6c2.5,0,4.9-1.9,4.9-4.7c0-3.1-2.6-4.7-5.4-4.7h-1.5l-0.5-1.3l5.3-6.4
				c0.6-0.7,1.1-1.2,1.1-1.2v-0.1c0,0-0.6,0.1-1.7,0.1h-8v-1.9h12.4v1.4l-6.4,7.5c2.7,0.2,6.7,1.7,6.7,6.4c0,3.7-3,6.8-7,6.8
				c-4.2,0-6.7-3-6.7-3L1424.6,1666.4z"/>
			<path d="M1440.7,1668.7h4.8v-16c0-0.6,0-1.2,0-1.2h-0.1c0,0-0.2,0.5-1.1,1.3l-2.3,2.3l-1.3-1.4l4.8-4.9h1.9v19.9h4.7v1.9h-11.5
				L1440.7,1668.7L1440.7,1668.7z"/>
			<path d="M1455.1,1660.8c0-5.5,2.8-12.3,9.3-12.3c2.4,0,3.9,0.9,3.9,0.9l-0.8,1.9c0,0-1.3-0.8-3.1-0.8c-4.4,0-6.7,4.5-7.1,8.8h0.1
				c1-1.6,3.2-2.5,5.4-2.5c3.9,0,6.6,2.9,6.6,7.1c0,4.5-3,7.3-6.7,7.3C1458.1,1671,1455.1,1666.7,1455.1,1660.8z M1467.3,1663.8
				c0-3.1-1.9-5.2-4.8-5.2c-2.8,0-5.1,2-5.1,3.7c0,2.9,2.2,6.7,5.4,6.7C1465.6,1669,1467.3,1666.8,1467.3,1663.8z"/>
		</g>
	</g>
	<g>
		<g class="st5">
			<path d="M1555.1,1179c0,0,2.2,2.6,5.4,2.6c2.5,0,4.9-1.9,4.9-4.7c0-3.1-2.6-4.7-5.4-4.7h-1.5l-0.5-1.3l5.3-6.4
				c0.6-0.7,1.1-1.2,1.1-1.2v-0.1c0,0-0.6,0.1-1.7,0.1h-8v-1.9h12.4v1.4l-6.4,7.5c2.7,0.2,6.7,1.7,6.7,6.4c0,3.7-3,6.8-7,6.8
				c-4.2,0-6.7-3-6.7-3L1555.1,1179z"/>
			<path d="M1571.6,1172.3c0-6.3,1.8-11.3,7.3-11.3s7.3,5,7.3,11.3s-1.8,11.3-7.3,11.3S1571.6,1178.6,1571.6,1172.3z M1584,1172.3
				c0-5.2-1.1-9.3-5.1-9.3c-4.1,0-5.2,4.1-5.2,9.3c0,5.2,1.1,9.3,5.2,9.3C1582.9,1181.6,1584,1177.5,1584,1172.3z"/>
			<path d="M1589.4,1175.8l10.5-14.4h2.3v13.9h3v1.9h-3v6.1h-2.1v-6.1h-10.6v-1.4H1589.4z M1600,1175.3v-9.1c0-0.9,0.1-2,0.1-2h-0.1
				c0,0-0.5,0.9-1.1,1.6l-7.1,9.5v0.1L1600,1175.3L1600,1175.3z"/>
		</g>
	</g>
	<g>
		<g class="st5">
			<path d="M1157.6,1119.1c0,0,2.2,2.6,5.4,2.6c2.5,0,4.9-1.9,4.9-4.7c0-3.1-2.6-4.7-5.4-4.7h-1.5l-0.5-1.3l5.3-6.4
				c0.6-0.7,1.1-1.2,1.1-1.2v-0.1c0,0-0.6,0.1-1.7,0.1h-8v-1.9h12.4v1.4l-6.4,7.5c2.7,0.2,6.7,1.7,6.7,6.4c0,3.7-3,6.8-7,6.8
				c-4.2,0-6.7-3-6.7-3L1157.6,1119.1z"/>
			<path d="M1174,1112.4c0-6.3,1.8-11.3,7.3-11.3s7.3,5,7.3,11.3s-1.8,11.3-7.3,11.3S1174,1118.8,1174,1112.4z M1186.5,1112.4
				c0-5.2-1.1-9.3-5.1-9.3c-4.1,0-5.2,4.1-5.2,9.3c0,5.2,1.1,9.3,5.2,9.3C1185.4,1121.7,1186.5,1117.6,1186.5,1112.4z"/>
			<path d="M1192.8,1113.5c0-5.5,2.8-12.3,9.3-12.3c2.4,0,3.9,0.9,3.9,0.9l-0.8,1.9c0,0-1.3-0.8-3.1-0.8c-4.4,0-6.7,4.5-7.1,8.8h0.1
				c1-1.6,3.2-2.5,5.4-2.5c3.9,0,6.6,2.9,6.6,7.1c0,4.5-3,7.3-6.7,7.3C1195.8,1123.7,1192.8,1119.4,1192.8,1113.5z M1205,1116.5
				c0-3.1-1.9-5.2-4.8-5.2c-2.8,0-5.1,2-5.1,3.7c0,2.9,2.2,6.7,5.4,6.7C1203.3,1121.7,1205,1119.5,1205,1116.5z"/>
		</g>
	</g>
	<g>
		<g class="st5">
			<path d="M1316.9,1179c0,0,2.2,2.6,5.4,2.6c2.5,0,4.9-1.9,4.9-4.7c0-3.1-2.6-4.7-5.4-4.7h-1.5l-0.5-1.3l5.3-6.4
				c0.6-0.7,1.1-1.2,1.1-1.2v-0.1c0,0-0.6,0.1-1.7,0.1h-8v-1.9h12.4v1.4l-6.4,7.5c2.7,0.2,6.7,1.7,6.7,6.4c0,3.7-3,6.8-7,6.8
				c-4.2,0-6.7-3-6.7-3L1316.9,1179z"/>
			<path d="M1333.3,1172.3c0-6.3,1.8-11.3,7.3-11.3s7.3,5,7.3,11.3s-1.8,11.3-7.3,11.3S1333.3,1178.6,1333.3,1172.3z M1345.8,1172.3
				c0-5.2-1.1-9.3-5.1-9.3c-4.1,0-5.2,4.1-5.2,9.3c0,5.2,1.1,9.3,5.2,9.3C1344.7,1181.6,1345.8,1177.5,1345.8,1172.3z"/>
			<path d="M1353.1,1179c0,0,1.6,2.5,4.8,2.5c2.9,0,5.3-2.1,5.3-5.1s-2.4-5.1-5.4-5.1c-2.3,0-3.9,1.2-3.9,1.2l-1.3-0.5l1.1-10.6
				h10.3v1.9h-8.5l-0.6,5.6c-0.1,0.8-0.2,1.2-0.2,1.2h0.1c0,0,1.3-0.8,3.2-0.8c4.3,0,7.3,3.2,7.3,7.1c0,4-3.2,7.2-7.4,7.2
				c-4.2,0-6.2-3.1-6.2-3.1L1353.1,1179z"/>
		</g>
	</g>
	<g>
		<g class="st5">
			<path d="M1401.7,709.6c0,0,2.2,2.6,5.4,2.6c2.5,0,4.9-1.9,4.9-4.7c0-3.1-2.6-4.7-5.4-4.7h-1.5l-0.5-1.3l5.3-6.4
				c0.6-0.7,1.1-1.2,1.1-1.2v-0.1c0,0-0.6,0.1-1.7,0.1h-8V692h12.4v1.4l-6.4,7.5c2.7,0.2,6.7,1.7,6.7,6.4c0,3.7-3,6.8-7,6.8
				c-4.2,0-6.7-3-6.7-3L1401.7,709.6z"/>
			<path d="M1417.9,712.5c0-7.7,10.9-8.7,10.9-14.6c0-2.4-1.8-4.2-4.4-4.2c-3.1,0-4.7,3-4.7,3l-1.6-1.1c0,0,1.9-3.9,6.4-3.9
				c4.1,0,6.5,2.7,6.5,6.1c0,7.3-10.7,8.4-10.8,14.2h11.1v1.9H1418C1418,713.4,1417.9,712.9,1417.9,712.5z"/>
			<path d="M1433.6,706.4l10.5-14.4h2.3v13.9h3v1.9h-3v6.1h-2.1v-6.1h-10.6v-1.4H1433.6z M1444.2,705.9v-9.1c0-0.9,0.1-2,0.1-2h-0.1
				c0,0-0.5,0.9-1.1,1.6l-7.1,9.5v0.1L1444.2,705.9L1444.2,705.9z"/>
		</g>
	</g>
	<g>
		<g class="st5">
			<path d="M1129.6,687.4c0,0,2.2,2.6,5.4,2.6c2.5,0,4.9-1.9,4.9-4.7c0-3.1-2.6-4.7-5.4-4.7h-1.5l-0.5-1.3l5.3-6.4
				c0.6-0.7,1.1-1.2,1.1-1.2v-0.1c0,0-0.6,0.1-1.7,0.1h-8v-1.9h12.4v1.4l-6.4,7.5c2.7,0.2,6.7,1.7,6.7,6.4c0,3.7-3,6.8-7,6.8
				c-4.2,0-6.7-3-6.7-3L1129.6,687.4z"/>
			<path d="M1146.1,680.7c0-6.3,1.8-11.3,7.3-11.3s7.3,5,7.3,11.3s-1.8,11.3-7.3,11.3S1146.1,687.1,1146.1,680.7z M1158.5,680.7
				c0-5.2-1.1-9.3-5.1-9.3c-4.1,0-5.2,4.1-5.2,9.3s1.1,9.3,5.2,9.3C1157.4,690,1158.5,686,1158.5,680.7z"/>
			<path d="M1164.5,689.8h4.8v-16c0-0.6,0-1.2,0-1.2h-0.1c0,0-0.2,0.5-1.1,1.3l-2.3,2.3l-1.3-1.4l4.8-4.9h1.9v19.9h4.7v1.9h-11.5
				L1164.5,689.8L1164.5,689.8z"/>
		</g>
	</g>
	<g>
		<g class="st5">
			<path d="M934.5,629c0,0,2.2,2.6,5.4,2.6c2.5,0,4.9-1.9,4.9-4.7c0-3.1-2.6-4.7-5.4-4.7H938l-0.5-1.3l5.3-6.4
				c0.6-0.7,1.1-1.2,1.1-1.2v-0.1c0,0-0.6,0.1-1.7,0.1h-8v-1.9h12.4v1.4l-6.4,7.5c2.7,0.2,6.7,1.7,6.7,6.4c0,3.7-3,6.8-7,6.8
				c-4.2,0-6.7-3-6.7-3L934.5,629z"/>
			<path d="M950.6,631.9c0-7.7,10.9-8.7,10.9-14.6c0-2.4-1.8-4.2-4.4-4.2c-3.1,0-4.7,3-4.7,3l-1.6-1.1c0,0,1.9-3.9,6.4-3.9
				c4.1,0,6.5,2.7,6.5,6.1c0,7.3-10.7,8.4-10.8,14.2H964v1.9h-13.3C950.7,632.8,950.6,632.3,950.6,631.9z"/>
			<path d="M968.5,629c0,0,2.2,2.6,5.4,2.6c2.5,0,4.9-1.9,4.9-4.7c0-3.1-2.6-4.7-5.4-4.7h-1.5l-0.5-1.3l5.3-6.4
				c0.6-0.7,1.1-1.2,1.1-1.2v-0.1c0,0-0.6,0.1-1.7,0.1h-8v-1.9h12.4v1.4l-6.4,7.5c2.7,0.2,6.7,1.7,6.7,6.4c0,3.7-3,6.8-7,6.8
				c-4.2,0-6.7-3-6.7-3L968.5,629z"/>
		</g>
	</g>
	<g>
		<g class="st5">
			<path d="M678,683.3c0,0,2.2,2.6,5.4,2.6c2.5,0,4.9-1.9,4.9-4.7c0-3.1-2.6-4.7-5.4-4.7h-1.5l-0.5-1.3l5.3-6.4
				c0.6-0.7,1.1-1.2,1.1-1.2v-0.1c0,0-0.6,0.1-1.7,0.1h-8v-1.9H690v1.4l-6.4,7.5c2.7,0.2,6.7,1.7,6.7,6.4c0,3.7-3,6.8-7,6.8
				c-4.2,0-6.7-3-6.7-3L678,683.3z"/>
			<path d="M694.1,686.2c0-7.7,10.9-8.7,10.9-14.6c0-2.4-1.8-4.2-4.4-4.2c-3.1,0-4.7,3-4.7,3l-1.6-1.1c0,0,1.9-3.9,6.4-3.9
				c4.1,0,6.5,2.7,6.5,6.1c0,7.3-10.7,8.4-10.8,14.2h11.1v1.9h-13.3C694.2,687.1,694.1,686.6,694.1,686.2z"/>
			<path d="M711.1,685.6h4.8v-16c0-0.6,0-1.2,0-1.2h-0.1c0,0-0.2,0.5-1.1,1.3l-2.3,2.3l-1.3-1.4l4.8-4.9h1.9v19.9h4.7v1.9H711
				L711.1,685.6L711.1,685.6z"/>
		</g>
	</g>
	<g>
		<g class="st5">
			<path d="M825.8,724.2c0,0,2.2,2.6,5.4,2.6c2.5,0,4.9-1.9,4.9-4.7c0-3.1-2.6-4.7-5.4-4.7h-1.5l-0.5-1.3l5.3-6.4
				c0.6-0.7,1.1-1.2,1.1-1.2v-0.1c0,0-0.6,0.1-1.7,0.1h-8v-1.9h12.4v1.4l-6.4,7.5c2.7,0.2,6.7,1.7,6.7,6.4c0,3.7-3,6.8-7,6.8
				c-4.2,0-6.7-3-6.7-3L825.8,724.2z"/>
			<path d="M842,727.1c0-7.7,10.9-8.7,10.9-14.6c0-2.4-1.8-4.2-4.4-4.2c-3.1,0-4.7,3-4.7,3l-1.6-1.1c0,0,1.9-3.9,6.4-3.9
				c4.1,0,6.5,2.7,6.5,6.1c0,7.3-10.7,8.4-10.8,14.2h11.1v1.9h-13.3C842,728,842,727.5,842,727.1z"/>
			<path d="M859,727.1c0-7.7,10.9-8.7,10.9-14.6c0-2.4-1.8-4.2-4.4-4.2c-3.1,0-4.7,3-4.7,3l-1.6-1.1c0,0,1.9-3.9,6.4-3.9
				c4.1,0,6.5,2.7,6.5,6.1c0,7.3-10.7,8.4-10.8,14.2h11.1v1.9h-13.3C859.1,728,859,727.5,859,727.1z"/>
		</g>
	</g>
	<g class="st5">
		<path d="M725.3,961.5c0,0,2.2,2.6,5.4,2.6c2.5,0,4.9-1.9,4.9-4.7c0-3.1-2.6-4.7-5.4-4.7h-1.5l-0.5-1.3l5.3-6.4
			c0.6-0.7,1.1-1.2,1.1-1.2v-0.1c0,0-0.6,0.1-1.7,0.1h-8v-1.9h12.4v1.4l-6.4,7.5c2.7,0.2,6.7,1.7,6.7,6.4c0,3.7-3,6.8-7,6.8
			c-4.2,0-6.7-3-6.7-3L725.3,961.5z"/>
		<path d="M741.4,964.3c0-7.7,10.9-8.7,10.9-14.6c0-2.4-1.8-4.2-4.4-4.2c-3.1,0-4.7,3-4.7,3l-1.6-1.1c0,0,1.9-3.9,6.4-3.9
			c4.1,0,6.5,2.7,6.5,6.1c0,7.3-10.7,8.4-10.8,14.2h11.1v1.9h-13.3C741.5,965.2,741.4,964.8,741.4,964.3z"/>
		<path d="M762.1,953.5c-1.5-1-2.6-2.4-2.6-4.4c0-2.8,2.1-5.5,6.4-5.5c4,0,6.5,2.3,6.5,5.7c0,3.1-2.4,5.7-2.6,5.9
			c1.8,1,3.1,2.4,3.1,4.7c0,3.4-2.9,6.3-7,6.3c-3.8,0-7.2-2.5-7.2-6.6C758.6,955.9,761.6,953.8,762.1,953.5z M763.8,954.4
			c-0.7,0.4-3.1,2.1-3.1,4.9c0,3,2.5,4.8,5.1,4.8c2.5,0,4.9-1.8,4.9-4.3C770.7,956.9,767,956,763.8,954.4z M768.1,954.2
			c0.4-0.4,2.2-2.3,2.2-4.9c0-2.3-1.8-3.8-4.4-3.8c-2.7,0-4.3,1.6-4.3,3.6C761.6,951.9,765,952.9,768.1,954.2z"/>
	</g>
	<g>
		<g class="st5">
			<path d="M625.4,970.6c0,0,2.2,2.6,5.4,2.6c2.5,0,4.9-1.9,4.9-4.7c0-3.1-2.6-4.7-5.4-4.7h-1.5l-0.5-1.3l5.3-6.4
				c0.6-0.7,1.1-1.2,1.1-1.2v-0.1c0,0-0.6,0.1-1.7,0.1h-8V953h12.4v1.4l-6.4,7.5c2.7,0.2,6.7,1.7,6.7,6.4c0,3.7-3,6.8-7,6.8
				c-4.2,0-6.7-3-6.7-3L625.4,970.6z"/>
			<path d="M641.6,973.4c0-7.7,10.9-8.7,10.9-14.6c0-2.4-1.8-4.2-4.4-4.2c-3.1,0-4.7,3-4.7,3l-1.6-1.1c0,0,1.9-3.9,6.4-3.9
				c4.1,0,6.5,2.7,6.5,6.1c0,7.3-10.7,8.4-10.8,14.2H655v1.9h-13.3C641.6,974.3,641.6,973.9,641.6,973.4z"/>
			<path d="M659.6,974.3l0.8-1.9c0,0,1.3,0.8,3.1,0.8c4.5,0,6.7-4.5,7.1-8.8h-0.1c-1.1,1.6-3.2,2.5-5.4,2.5c-3.9,0-6.6-2.9-6.6-7.1
				c0-4.5,2.9-7.3,6.7-7.3c4.6,0,7.7,4.3,7.7,10.3c0,5.5-2.8,12.3-9.3,12.3C661.2,975.2,659.6,974.3,659.6,974.3z M670.6,961.3
				c0-2.9-2.2-6.7-5.4-6.7c-2.9,0-4.6,2.2-4.6,5.2c0,3.1,1.9,5.2,4.8,5.2C668.3,965,670.6,963.1,670.6,961.3z"/>
		</g>
	</g>
	<g>
		<g class="st5">
			<path d="M1033.6,1318.1c0,0,2.2,2.6,5.4,2.6c2.5,0,4.9-1.9,4.9-4.7c0-3.1-2.6-4.7-5.4-4.7h-1.5l-0.5-1.3l5.3-6.4
				c0.6-0.7,1.1-1.2,1.1-1.2v-0.1c0,0-0.6,0.1-1.7,0.1h-8v-1.9h12.4v1.4l-6.4,7.5c2.7,0.2,6.7,1.7,6.7,6.4c0,3.7-3,6.8-7,6.8
				c-4.2,0-6.7-3-6.7-3L1033.6,1318.1z"/>
			<path d="M1050.1,1311.4c0-6.3,1.8-11.3,7.3-11.3s7.3,5,7.3,11.3s-1.8,11.3-7.3,11.3S1050.1,1317.8,1050.1,1311.4z M1062.6,1311.4
				c0-5.2-1.1-9.3-5.1-9.3c-4.1,0-5.2,4.1-5.2,9.3c0,5.2,1.1,9.3,5.2,9.3C1061.5,1320.7,1062.6,1316.7,1062.6,1311.4z"/>
			<path d="M1078.4,1304.5c0.6-1.2,1.2-2,1.2-2v-0.1c0,0-0.5,0.1-1.6,0.1h-9.9v-1.9h13.8v1.5l-9.9,20.3h-2.2L1078.4,1304.5z"/>
		</g>
	</g>
	<g>
		<g class="st5">
			<path d="M1035,1467.4c0,0,2.2,2.6,5.4,2.6c2.5,0,4.9-1.9,4.9-4.7c0-3.1-2.6-4.7-5.4-4.7h-1.5l-0.5-1.3l5.3-6.4
				c0.6-0.7,1.1-1.2,1.1-1.2v-0.1c0,0-0.6,0.1-1.7,0.1h-8v-1.9h12.4v1.4l-6.4,7.5c2.7,0.2,6.7,1.7,6.7,6.4c0,3.7-3,6.8-7,6.8
				c-4.2,0-6.7-3-6.7-3L1035,1467.4z"/>
			<path d="M1051.5,1460.7c0-6.3,1.8-11.3,7.3-11.3s7.3,5,7.3,11.3s-1.8,11.3-7.3,11.3S1051.5,1467,1051.5,1460.7z M1064,1460.7
				c0-5.2-1.1-9.3-5.1-9.3c-4.1,0-5.2,4.1-5.2,9.3c0,5.2,1.1,9.3,5.2,9.3C1062.8,1470,1064,1465.9,1064,1460.7z"/>
			<path d="M1073.7,1459.4c-1.5-1-2.6-2.4-2.6-4.4c0-2.8,2.1-5.5,6.4-5.5c4,0,6.5,2.3,6.5,5.7c0,3.1-2.4,5.7-2.6,5.9
				c1.8,1,3.1,2.4,3.1,4.7c0,3.4-2.9,6.3-7,6.3c-3.8,0-7.2-2.5-7.2-6.6C1070.2,1461.9,1073.2,1459.7,1073.7,1459.4z M1075.4,1460.3
				c-0.7,0.4-3.1,2.1-3.1,4.9c0,3,2.5,4.8,5.1,4.8c2.5,0,4.9-1.8,4.9-4.3C1082.3,1462.8,1078.5,1461.9,1075.4,1460.3z
				 M1079.6,1460.1c0.4-0.4,2.2-2.3,2.2-4.9c0-2.3-1.8-3.8-4.4-3.8c-2.7,0-4.3,1.6-4.3,3.6
				C1073.1,1457.8,1076.6,1458.8,1079.6,1460.1z"/>
		</g>
	</g>
	<g>
		<g class="st5">
			<path d="M983.6,1673.7c0,0,2.2,2.6,5.4,2.6c2.5,0,4.9-1.9,4.9-4.7c0-3.1-2.6-4.7-5.4-4.7H987l-0.5-1.3l5.3-6.4
				c0.6-0.7,1.1-1.2,1.1-1.2v-0.1c0,0-0.6,0.1-1.7,0.1h-8v-1.9h12.4v1.4l-6.4,7.5c2.7,0.2,6.7,1.7,6.7,6.4c0,3.7-3,6.8-7,6.8
				c-4.2,0-6.7-3-6.7-3L983.6,1673.7z"/>
			<path d="M1000.1,1667c0-6.3,1.8-11.3,7.3-11.3s7.3,5,7.3,11.3s-1.8,11.3-7.3,11.3C1001.9,1678.3,1000.1,1673.3,1000.1,1667z
				 M1012.6,1667c0-5.2-1.1-9.3-5.1-9.3c-4.1,0-5.2,4.1-5.2,9.3c0,5.2,1.1,9.3,5.2,9.3C1011.5,1676.3,1012.6,1672.2,1012.6,1667z"/>
			<path d="M1022.3,1665.7c-1.5-1-2.6-2.4-2.6-4.4c0-2.8,2.1-5.5,6.4-5.5c4,0,6.5,2.3,6.5,5.7c0,3.1-2.4,5.7-2.6,5.9
				c1.8,1,3.1,2.4,3.1,4.7c0,3.4-2.9,6.3-7,6.3c-3.8,0-7.2-2.5-7.2-6.6C1018.8,1668.1,1021.8,1666,1022.3,1665.7z M1024,1666.6
				c-0.7,0.4-3.1,2.1-3.1,4.9c0,3,2.5,4.8,5.1,4.8c2.5,0,4.9-1.8,4.9-4.3C1030.9,1669.1,1027.1,1668.2,1024,1666.6z M1028.2,1666.4
				c0.4-0.4,2.2-2.3,2.2-4.9c0-2.3-1.8-3.8-4.4-3.8c-2.7,0-4.3,1.6-4.3,3.6C1021.8,1664.1,1025.2,1665.1,1028.2,1666.4z"/>
		</g>
	</g>
	<g class="st5">
		<path d="M725.9,1478.4c0,0,2.2,2.6,5.4,2.6c2.5,0,4.9-1.9,4.9-4.7c0-3.1-2.6-4.7-5.4-4.7h-1.5l-0.5-1.3l5.3-6.4
			c0.6-0.7,1.1-1.2,1.1-1.2v-0.1c0,0-0.6,0.1-1.7,0.1h-8v-1.9H738v1.4l-6.4,7.5c2.7,0.2,6.7,1.7,6.7,6.4c0,3.7-3,6.8-7,6.8
			c-4.2,0-6.7-3-6.7-3L725.9,1478.4z"/>
		<path d="M742.3,1471.7c0-6.3,1.8-11.3,7.3-11.3s7.3,5,7.3,11.3s-1.8,11.3-7.3,11.3S742.3,1478.1,742.3,1471.7z M754.8,1471.7
			c0-5.2-1.1-9.3-5.1-9.3c-4.1,0-5.2,4.1-5.2,9.3c0,5.2,1.1,9.3,5.2,9.3C753.7,1481,754.8,1476.9,754.8,1471.7z"/>
		<path d="M761.9,1482.1l0.8-1.9c0,0,1.3,0.8,3.1,0.8c4.5,0,6.7-4.5,7.1-8.8h-0.1c-1.1,1.6-3.2,2.5-5.4,2.5c-3.9,0-6.6-2.9-6.6-7.1
			c0-4.5,2.9-7.3,6.7-7.3c4.6,0,7.7,4.3,7.7,10.2c0,5.5-2.8,12.3-9.3,12.3C763.5,1483,761.9,1482.1,761.9,1482.1z M772.9,1469.1
			c0-2.9-2.2-6.7-5.4-6.7c-2.9,0-4.6,2.2-4.6,5.2c0,3.1,1.9,5.2,4.8,5.2C770.6,1472.9,772.9,1470.9,772.9,1469.1z"/>
	</g>
	<g class="st5">
		<path d="M727.8,1285.7c0,0,2.2,2.6,5.4,2.6c2.5,0,4.9-1.9,4.9-4.7c0-3.1-2.6-4.7-5.4-4.7h-1.5l-0.5-1.3l5.3-6.4
			c0.6-0.7,1.1-1.2,1.1-1.2v-0.1c0,0-0.6,0.1-1.7,0.1h-8v-1.9H740v1.4l-6.4,7.5c2.7,0.2,6.7,1.7,6.7,6.4c0,3.7-3,6.8-7,6.8
			c-4.2,0-6.7-3-6.7-3L727.8,1285.7z"/>
		<path d="M743.9,1288h4.8v-16c0-0.6,0-1.2,0-1.2h-0.1c0,0-0.2,0.5-1.1,1.3l-2.3,2.3l-1.3-1.4l4.8-4.9h1.9v19.9h4.7v1.9h-11.5
			L743.9,1288L743.9,1288z"/>
		<path d="M758.4,1279c0-6.3,1.8-11.3,7.3-11.3s7.3,5,7.3,11.3s-1.8,11.3-7.3,11.3S758.4,1285.4,758.4,1279z M770.9,1279
			c0-5.2-1.1-9.3-5.1-9.3c-4.1,0-5.2,4.1-5.2,9.3c0,5.2,1.1,9.3,5.2,9.3C769.7,1288.3,770.9,1284.2,770.9,1279z"/>
	</g>
	<g>
		<g class="st5">
			<path d="M730.2,1156.4c0,0,2.2,2.6,5.4,2.6c2.5,0,4.9-1.9,4.9-4.7c0-3.1-2.6-4.7-5.4-4.7h-1.5l-0.5-1.3l5.3-6.4
				c0.6-0.7,1.1-1.2,1.1-1.2v-0.1c0,0-0.6,0.1-1.7,0.1h-8v-1.9h12.4v1.4l-6.4,7.5c2.7,0.2,6.7,1.7,6.7,6.4c0,3.7-3,6.8-7,6.8
				c-4.2,0-6.7-3-6.7-3L730.2,1156.4z"/>
			<path d="M746.3,1158.7h4.8v-16c0-0.6,0-1.2,0-1.2H751c0,0-0.2,0.5-1.1,1.3l-2.3,2.3l-1.3-1.4l4.8-4.9h1.9v19.9h4.7v1.9h-11.5
				L746.3,1158.7L746.3,1158.7z"/>
			<path d="M760.4,1158.7h4.8v-16c0-0.6,0-1.2,0-1.2h-0.1c0,0-0.2,0.5-1.1,1.3l-2.3,2.3l-1.3-1.4l4.8-4.9h1.9v19.9h4.7v1.9h-11.5
				L760.4,1158.7L760.4,1158.7z"/>
		</g>
	</g>
	<g>
		<g class="st5">
			<path d="M1130,923h2.1v9.5h3.6l5.7-9.5h2.4l-6.4,10.3v0.1l6.8,11.5h-2.4l-6.1-10.4h-3.6v10.4h-2.1V923z"/>
			<path d="M1147.8,940.6c0,0,2.2,2.6,5.4,2.6c2.5,0,4.9-1.9,4.9-4.7c0-3.1-2.6-4.7-5.4-4.7h-1.5l-0.5-1.3l5.3-6.4
				c0.6-0.7,1.1-1.2,1.1-1.2v-0.1c0,0-0.6,0.1-1.7,0.1h-8V923h12.4v1.4l-6.4,7.5c2.7,0.2,6.7,1.7,6.7,6.4c0,3.7-3,6.8-7,6.8
				c-4.2,0-6.7-3-6.7-3L1147.8,940.6z"/>
			<path d="M1163.8,942.9h4.8v-16c0-0.6,0-1.2,0-1.2h-0.1c0,0-0.2,0.5-1.1,1.3l-2.3,2.3l-1.3-1.4l4.8-4.9h1.9v19.9h4.7v1.9h-11.5
				L1163.8,942.9L1163.8,942.9z"/>
			<path d="M1178.8,940.6c0,0,2.2,2.6,5.4,2.6c2.5,0,4.9-1.9,4.9-4.7c0-3.1-2.6-4.7-5.4-4.7h-1.5l-0.5-1.3l5.3-6.4
				c0.6-0.7,1.1-1.2,1.1-1.2v-0.1c0,0-0.6,0.1-1.7,0.1h-8V923h12.4v1.4l-6.4,7.5c2.7,0.2,6.7,1.7,6.7,6.4c0,3.7-3,6.8-7,6.8
				c-4.2,0-6.7-3-6.7-3L1178.8,940.6z"/>
		</g>
	</g>
	<g>
		<g class="st5">
			<path d="M926.4,888.3h2.1v9.5h3.6l5.7-9.5h2.4l-6.4,10.3v0.1l6.8,11.5h-2.4l-6.1-10.4h-3.6v10.4h-2.1V888.3z"/>
			<path d="M944.1,905.9c0,0,2.2,2.6,5.4,2.6c2.5,0,4.9-1.9,4.9-4.7c0-3.1-2.6-4.7-5.4-4.7h-1.5l-0.5-1.3l5.3-6.4
				c0.6-0.7,1.1-1.2,1.1-1.2v-0.1c0,0-0.6,0.1-1.7,0.1h-8v-1.9h12.4v1.4l-6.4,7.5c2.7,0.2,6.7,1.7,6.7,6.4c0,3.7-3,6.8-7,6.8
				c-4.2,0-6.7-3-6.7-3L944.1,905.9z"/>
			<path d="M960.2,908.2h4.8v-16c0-0.6,0-1.2,0-1.2h-0.1c0,0-0.2,0.5-1.1,1.3l-2.3,2.3l-1.3-1.4l4.8-4.9h1.9v19.9h4.7v1.9h-11.5
				L960.2,908.2L960.2,908.2z"/>
			<path d="M974.4,908.7c0-7.7,10.9-8.7,10.9-14.6c0-2.4-1.8-4.2-4.4-4.2c-3.1,0-4.7,3-4.7,3l-1.6-1.1c0,0,1.9-3.9,6.4-3.9
				c4.1,0,6.5,2.7,6.5,6.1c0,7.3-10.7,8.4-10.8,14.2h11.1v1.9h-13.3C974.4,909.6,974.4,909.2,974.4,908.7z"/>
		</g>
	</g>
	<g>
		<path class="st4" d="M750.7,1629.1c5.2,0,7.9,3,7.9,3l-1.9,3c0,0-2.4-2.3-5.9-2.3c-4.5,0-7.2,3.5-7.2,7.6c0,4.2,2.7,7.9,7.2,7.9
			c3.7,0,6.2-2.8,6.2-2.8l2.1,2.9c0,0-3,3.6-8.4,3.6c-6.6,0-11.1-5-11.1-11.5C739.7,1634,744.4,1629.1,750.7,1629.1z"/>
		<path class="st4" d="M763.9,1629.4h4.2l4.2,10.9c0.5,1.3,1.1,3.2,1.1,3.2h0.1c0,0,0.6-1.9,1.1-3.2l4.2-10.9h4.2l1.7,22h-3.9
			l-0.9-12.3c-0.1-1.5,0-3.4,0-3.4h-0.1c0,0-0.6,2.1-1.1,3.4l-3.5,8.5h-3.4l-3.4-8.5c-0.5-1.3-1.2-3.4-1.2-3.4H767c0,0,0.1,2,0,3.4
			l-0.9,12.3h-3.9L763.9,1629.4z"/>
	</g>
	<path class="st3" d="M890.5,1081.8c23.3,0,42.4-19.6,42.4-43.5s-19.1-43.5-42.4-43.5c-23.7,0-42.4,19.6-42.4,43.5
		C847.7,1062.2,866.8,1081.8,890.5,1081.8"/>
	<path class="st4" d="M890.9,1028.1l9.1-9.4c1.7-1.7,4.2-2.6,6.2-2.6h10c3.3,0,7.5,3.4,7.5,8.5s-4.2,8.5-7.5,8.5c-2.5,0-6.2,0-6.2,0
		c-0.8,0-1.2,0-1.7,0.9l-25.3,25.6c-2.1,2.1-4.6,2.6-6.6,2.6s-8.7,0-8.7,0c-5.4,0-8.3-4.7-8.3-8.5s2.9-8.1,7.9-8.1h5
		c1.2,0,1.7,0,2.5-0.9l7.9-8.1v-11.1c0-6,8.3-6,8.3,0v2.6 M886.8,1020.4c2.5,0,4.2-2.1,4.2-4.3c0-2.1-2.1-4.3-4.2-4.3
		c-2.5,0-4.2,1.7-4.2,4.3C882.6,1018.2,884.3,1020.4,886.8,1020.4 M906.7,1020.8c-1.7,0-2.9,0-4.2,1.3l-25.8,26.5
		c-0.8,0.9-2.1,1.3-3.7,1.3h-5.8c-2.1,0-3.7,1.3-3.7,3.8c0,2.6,1.7,4.3,4.2,4.3h8.3c1.7,0,2.9-0.4,4.2-1.7l25.3-26
		c1.2-1.3,2.5-1.7,4.6-1.7h5.4c2.5,0,3.7-2.6,3.7-4.3c0-1.3-1.2-3.8-3.7-3.8L906.7,1020.8"/>
	<g>
		<path d="M97.7,839.1v8.5h9.1v2.7h-9.1v8.8h10.1v2.7H94.5v-25.6h13.4v2.7H97.7V839.1z"/>
		<path d="M128.1,843.7c1.5,1.5,2.2,3.6,2.2,6.4v11.8h-3.2v-11.4c0-2-0.5-3.5-1.5-4.6s-2.3-1.6-4-1.6s-3.1,0.5-4.1,1.6
			s-1.5,2.7-1.5,4.8v11.1h-3.2v-20.1h3.2v2.9c0.6-1,1.5-1.8,2.6-2.4c1.1-0.6,2.3-0.8,3.7-0.8C124.7,841.5,126.6,842.2,128.1,843.7z"
			/>
		<path d="M139.6,844.6v11.8c0,1,0.2,1.7,0.6,2.1c0.4,0.4,1.1,0.6,2.1,0.6h2.4v2.8h-2.9c-1.8,0-3.2-0.4-4.1-1.3
			c-0.9-0.9-1.4-2.3-1.4-4.2v-11.8h-2.5v-2.7h2.5v-5.1h3.2v5.1h5.1v2.7L139.6,844.6L139.6,844.6z"/>
		<path d="M154.3,842.4c1.1-0.6,2.3-1,3.9-1v3.4h-0.9c-3.6,0-5.5,2-5.5,6.1v10.9h-3.2v-20.1h3.2v3.3
			C152.4,844,153.3,843.1,154.3,842.4z"/>
		<path d="M178.8,841.9L167,871.4h-3.4l3.9-9.7l-7.9-19.9h3.6l6.1,16.3l6.1-16.3h3.4V841.9z"/>
		<path d="M199.5,844.6h-4.1v17.3h-3.2v-17.3h-2.5v-2.7h2.5v-1.4c0-2.2,0.6-3.9,1.7-4.9c1.1-1,2.9-1.6,5.4-1.6v2.8
			c-1.4,0-2.4,0.3-3,0.9c-0.6,0.6-0.9,1.5-0.9,2.8v1.4h4.1V844.6z"/>
		<path d="M209,842.4c1.1-0.6,2.3-1,3.9-1v3.4H212c-3.6,0-5.5,2-5.5,6.1v10.9h-3.2v-20.1h3.2v3.3C207.1,844,207.9,843.1,209,842.4z"
			/>
		<path d="M220.1,861c-1.5-0.9-2.7-2.1-3.5-3.6c-0.8-1.6-1.3-3.4-1.3-5.5s0.4-3.9,1.3-5.4c0.9-1.6,2.1-2.8,3.6-3.6s3.2-1.3,5-1.3
			s3.5,0.4,5,1.3c1.5,0.8,2.7,2,3.6,3.6c0.9,1.6,1.3,3.4,1.3,5.5s-0.4,3.9-1.3,5.5c-0.9,1.6-2.1,2.8-3.6,3.6
			c-1.5,0.9-3.2,1.3-5.1,1.3C223.3,862.3,221.6,861.8,220.1,861z M228.4,858.5c1-0.6,1.8-1.4,2.5-2.5c0.6-1.1,0.9-2.5,0.9-4.1
			s-0.3-3-0.9-4.1c-0.6-1.1-1.4-2-2.4-2.5c-1-0.6-2.1-0.8-3.2-0.8c-1.2,0-2.3,0.3-3.3,0.8s-1.8,1.4-2.4,2.5
			c-0.6,1.1-0.9,2.5-0.9,4.1s0.3,3,0.9,4.1c0.6,1.1,1.4,2,2.3,2.5c1,0.5,2,0.8,3.2,0.8S227.4,859.1,228.4,858.5z"/>
		<path d="M267,842.5c1.2,0.6,2.1,1.6,2.8,2.9c0.7,1.3,1,2.9,1,4.7v11.8h-3.2v-11.4c0-2-0.5-3.5-1.4-4.6c-1-1.1-2.3-1.6-3.9-1.6
			c-1.7,0-3,0.6-4,1.7c-1,1.1-1.5,2.7-1.5,4.8v11.1h-3.2v-11.4c0-2-0.5-3.5-1.4-4.6s-2.3-1.6-3.9-1.6c-1.7,0-3,0.6-4,1.7
			c-1,1.1-1.5,2.7-1.5,4.8v11.1h-3.2v-20.1h3.2v2.9c0.6-1,1.5-1.9,2.6-2.4c1.1-0.6,2.3-0.8,3.6-0.8c1.6,0,3.1,0.4,4.4,1.1
			c1.3,0.8,2.2,1.9,2.8,3.3c0.5-1.4,1.5-2.5,2.7-3.3c1.3-0.8,2.7-1.2,4.2-1.2C264.5,841.5,265.8,841.8,267,842.5z"/>
		<path d="M289.7,844.6v11.8c0,1,0.2,1.7,0.6,2.1c0.4,0.4,1.1,0.6,2.1,0.6h2.4v2.8h-2.9c-1.8,0-3.2-0.4-4.1-1.3
			c-0.9-0.9-1.4-2.3-1.4-4.2v-11.8h-2.5v-2.7h2.5v-5.1h3.2v5.1h5.1v2.7L289.7,844.6L289.7,844.6z"/>
		<path d="M312.4,842.5c1.2,0.6,2.1,1.6,2.8,2.9c0.7,1.3,1,2.9,1,4.7v11.8H313v-11.4c0-2-0.5-3.5-1.5-4.6s-2.3-1.6-4-1.6
			s-3.1,0.5-4.1,1.6s-1.5,2.7-1.5,4.8v11.1h-3.2v-27.1h3.2v9.9c0.6-1,1.5-1.8,2.7-2.4c1.1-0.6,2.4-0.8,3.8-0.8
			C309.9,841.5,311.2,841.8,312.4,842.5z"/>
		<path d="M339.3,853.2h-15.6c0.1,2,0.8,3.5,2,4.6s2.7,1.7,4.4,1.7c1.4,0,2.6-0.3,3.5-1s1.6-1.6,2-2.7h3.5c-0.5,1.9-1.6,3.5-3.1,4.7
			c-1.6,1.2-3.5,1.8-5.9,1.8c-1.9,0-3.5-0.4-5-1.3c-1.5-0.9-2.6-2.1-3.4-3.6c-0.8-1.6-1.2-3.4-1.2-5.5s0.4-3.9,1.2-5.5
			c0.8-1.6,1.9-2.8,3.4-3.6s3.1-1.3,5-1.3s3.5,0.4,4.9,1.2s2.5,2,3.3,3.4c0.8,1.5,1.2,3.1,1.2,4.9
			C339.4,851.8,339.3,852.4,339.3,853.2z M335.2,847.2c-0.5-0.9-1.3-1.6-2.2-2.1c-0.9-0.5-2-0.7-3.1-0.7c-1.6,0-3,0.5-4.2,1.6
			s-1.8,2.6-2,4.5H336C336,849.2,335.7,848.1,335.2,847.2z"/>
		<path d="M356.4,859.2h8.7v2.7h-12v-25.5h3.2L356.4,859.2L356.4,859.2z"/>
		<path d="M370.5,836.8c1.5-1.3,3.5-1.9,5.9-1.9c1.6,0,3,0.3,4.2,0.9c1.2,0.6,2.1,1.4,2.7,2.4s0.9,2.2,0.9,3.5
			c0,1.5-0.4,2.8-1.3,3.9c-0.8,1.1-1.9,1.8-3.3,2.1v0.2c1.5,0.4,2.8,1.2,3.7,2.3c0.9,1.1,1.4,2.7,1.4,4.5c0,1.4-0.3,2.6-0.9,3.8
			c-0.6,1.1-1.5,2-2.8,2.6c-1.2,0.6-2.7,1-4.5,1c-2.5,0-4.6-0.7-6.2-2c-1.6-1.4-2.5-3.3-2.7-5.8h3.1c0.2,1.5,0.7,2.7,1.7,3.6
			c1,0.9,2.3,1.4,4,1.4s2.9-0.4,3.8-1.3c0.9-0.9,1.3-2,1.3-3.5c0-1.8-0.6-3.2-1.8-4s-3-1.2-5.4-1.2h-0.8v-2.8h0.9
			c2.2,0,3.8-0.4,5-1.1s1.7-1.8,1.7-3.4c0-1.3-0.4-2.3-1.2-3.1c-0.8-0.8-2-1.2-3.5-1.2s-2.7,0.4-3.6,1.2s-1.4,1.8-1.6,3.2H368
			C368.2,839.9,369,838.1,370.5,836.8z"/>
		<path d="M100.2,886.4c1.1-0.6,2.3-1,3.9-1v3.4h-0.9c-3.6,0-5.5,2-5.5,6.1v10.9h-3.2v-20.1h3.2v3.3
			C98.3,888,99.1,887.1,100.2,886.4z"/>
		<path d="M111.4,905c-1.5-0.9-2.7-2.1-3.5-3.6c-0.8-1.6-1.3-3.4-1.3-5.5s0.4-3.9,1.3-5.4c0.9-1.6,2.1-2.8,3.6-3.6s3.2-1.3,5-1.3
			s3.5,0.4,5,1.3c1.5,0.8,2.7,2,3.6,3.6s1.3,3.4,1.3,5.5s-0.4,3.9-1.3,5.5s-2.1,2.8-3.6,3.6c-1.5,0.9-3.2,1.3-5.1,1.3
			C114.5,906.3,112.8,905.8,111.4,905z M119.6,902.5c1-0.6,1.8-1.4,2.5-2.5c0.6-1.1,0.9-2.5,0.9-4.1s-0.3-3-0.9-4.1s-1.4-2-2.4-2.5
			c-1-0.6-2.1-0.8-3.2-0.8c-1.2,0-2.3,0.3-3.3,0.8s-1.8,1.4-2.4,2.5s-0.9,2.5-0.9,4.1s0.3,3,0.9,4.1s1.4,2,2.3,2.5
			c1,0.5,2,0.8,3.2,0.8C117.5,903.3,118.6,903,119.6,902.5z"/>
		<path d="M134.2,905c-1.5-0.9-2.7-2.1-3.5-3.6c-0.8-1.6-1.3-3.4-1.3-5.5s0.4-3.9,1.3-5.4c0.9-1.6,2.1-2.8,3.6-3.6s3.2-1.3,5-1.3
			s3.5,0.4,5,1.3c1.5,0.8,2.7,2,3.6,3.6c0.9,1.6,1.3,3.4,1.3,5.5s-0.4,3.9-1.3,5.5c-0.9,1.6-2.1,2.8-3.6,3.6
			c-1.5,0.9-3.2,1.3-5.1,1.3C137.3,906.3,135.7,905.8,134.2,905z M142.4,902.5c1-0.6,1.8-1.4,2.5-2.5c0.6-1.1,0.9-2.5,0.9-4.1
			s-0.3-3-0.9-4.1c-0.6-1.1-1.4-2-2.4-2.5c-1-0.6-2.1-0.8-3.2-0.8c-1.2,0-2.3,0.3-3.3,0.8s-1.8,1.4-2.4,2.5
			c-0.6,1.1-0.9,2.5-0.9,4.1s0.3,3,0.9,4.1c0.6,1.1,1.4,2,2.3,2.5c1,0.5,2,0.8,3.2,0.8S141.4,903,142.4,902.5z"/>
		<path d="M161.4,888.6h-4.1v17.3h-3.2v-17.3h-2.5v-2.7h2.5v-1.4c0-2.2,0.6-3.9,1.7-4.9c1.1-1,2.9-1.6,5.4-1.6v2.8
			c-1.4,0-2.4,0.3-3,0.9c-0.6,0.6-0.9,1.5-0.9,2.8v1.4h4.1V888.6z"/>
		<path d="M169.2,888.6v11.8c0,1,0.2,1.7,0.6,2.1c0.4,0.4,1.1,0.6,2.1,0.6h2.4v2.8h-2.9c-1.8,0-3.2-0.4-4.1-1.3
			c-0.9-0.9-1.4-2.3-1.4-4.2v-11.8h-2.5v-2.7h2.5v-5.1h3.2v5.1h5.1v2.7L169.2,888.6L169.2,888.6z"/>
		<path d="M181.8,905c-1.5-0.9-2.7-2.1-3.5-3.6c-0.8-1.6-1.3-3.4-1.3-5.5s0.4-3.9,1.3-5.4c0.9-1.6,2.1-2.8,3.6-3.6s3.2-1.3,5-1.3
			s3.5,0.4,5,1.3c1.5,0.8,2.7,2,3.6,3.6c0.9,1.6,1.3,3.4,1.3,5.5s-0.4,3.9-1.3,5.5c-0.9,1.6-2.1,2.8-3.6,3.6
			c-1.5,0.9-3.2,1.3-5.1,1.3C184.9,906.3,183.2,905.8,181.8,905z M190,902.5c1-0.6,1.8-1.4,2.5-2.5c0.6-1.1,0.9-2.5,0.9-4.1
			s-0.3-3-0.9-4.1c-0.6-1.1-1.4-2-2.4-2.5c-1-0.6-2.1-0.8-3.2-0.8c-1.2,0-2.3,0.3-3.3,0.8s-1.8,1.4-2.4,2.5
			c-0.6,1.1-0.9,2.5-0.9,4.1s0.3,3,0.9,4.1c0.6,1.1,1.4,2,2.3,2.5c1,0.5,2,0.8,3.2,0.8C187.9,903.3,189,903,190,902.5z"/>
		<path d="M207.2,886.7c1.3-0.8,2.8-1.2,4.4-1.2c1.7,0,3.3,0.4,4.7,1.3c1.4,0.9,2.5,2.1,3.3,3.6c0.8,1.6,1.2,3.4,1.2,5.4
			s-0.4,3.8-1.2,5.4c-0.8,1.6-1.9,2.8-3.3,3.7c-1.4,0.9-3,1.3-4.7,1.3s-3.1-0.4-4.4-1.2c-1.3-0.8-2.2-1.7-2.9-2.9v13.2H201v-29.6
			h3.2v3.7C204.9,888.4,205.9,887.4,207.2,886.7z M216.7,891.9c-0.6-1.1-1.4-2-2.4-2.6s-2.1-0.9-3.3-0.9s-2.3,0.3-3.3,0.9
			c-1,0.6-1.8,1.5-2.4,2.6c-0.6,1.1-0.9,2.4-0.9,3.9s0.3,2.8,0.9,4c0.6,1.1,1.4,2,2.4,2.6s2.1,0.9,3.3,0.9s2.3-0.3,3.3-0.9
			c1-0.6,1.8-1.5,2.4-2.6c0.6-1.1,0.9-2.5,0.9-4C217.6,894.3,217.3,893,216.7,891.9z"/>
		<path d="M234.7,890.4c0.8-1.6,1.9-2.8,3.4-3.6c1.4-0.9,3.1-1.3,4.9-1.3c2.4,0,4.4,0.6,5.9,1.8c1.6,1.2,2.6,2.9,3.1,5h-3.5
			c-0.3-1.2-1-2.2-1.9-2.9c-1-0.7-2.2-1.1-3.6-1.1c-1.9,0-3.4,0.7-4.5,2s-1.7,3.2-1.7,5.6c0,2.4,0.6,4.3,1.7,5.6
			c1.1,1.3,2.6,2,4.5,2c1.4,0,2.6-0.3,3.6-1s1.6-1.7,2-2.9h3.5c-0.5,2.1-1.6,3.7-3.1,4.9c-1.6,1.2-3.5,1.9-5.9,1.9
			c-1.9,0-3.5-0.4-4.9-1.3c-1.4-0.9-2.6-2.1-3.4-3.6c-0.8-1.6-1.2-3.4-1.2-5.5C233.5,893.8,233.9,892,234.7,890.4z"/>
		<path d="M256.3,890.4c0.8-1.6,1.9-2.8,3.3-3.6c1.4-0.9,3-1.3,4.7-1.3s3.2,0.4,4.5,1.1c1.3,0.8,2.2,1.7,2.8,2.9v-3.7h3.3v20.1h-3.3
			v-3.7c-0.6,1.2-1.6,2.1-2.9,2.9c-1.3,0.8-2.8,1.2-4.4,1.2c-1.7,0-3.3-0.4-4.7-1.3c-1.4-0.9-2.5-2.1-3.3-3.7
			c-0.8-1.6-1.2-3.4-1.2-5.4C255.1,893.8,255.5,892,256.3,890.4z M270.8,891.9c-0.6-1.1-1.4-2-2.4-2.6s-2.1-0.9-3.3-0.9
			c-1.2,0-2.3,0.3-3.3,0.9c-1,0.6-1.8,1.4-2.4,2.6c-0.6,1.1-0.9,2.4-0.9,4c0,1.5,0.3,2.9,0.9,4s1.4,2,2.4,2.6s2.1,0.9,3.3,0.9
			c1.2,0,2.3-0.3,3.3-0.9c1-0.6,1.8-1.5,2.4-2.6s0.9-2.5,0.9-4C271.7,894.3,271.4,893,270.8,891.9z"/>
		<path d="M286.2,886.4c1.1-0.6,2.3-1,3.9-1v3.4h-0.9c-3.6,0-5.5,2-5.5,6.1v10.9h-3.2v-20.1h3.2v3.3
			C284.3,888,285.1,887.1,286.2,886.4z"/>
		<path d="M299.9,886.7c1.3-0.8,2.8-1.2,4.4-1.2c1.7,0,3.3,0.4,4.7,1.3c1.4,0.9,2.5,2.1,3.3,3.6c0.8,1.6,1.2,3.4,1.2,5.4
			s-0.4,3.8-1.2,5.4c-0.8,1.6-1.9,2.8-3.3,3.7s-3,1.3-4.7,1.3s-3.1-0.4-4.4-1.2s-2.2-1.7-2.9-2.9v13.2h-3.2v-29.6h3.2v3.7
			C297.7,888.4,298.6,887.4,299.9,886.7z M309.4,891.9c-0.6-1.1-1.4-2-2.4-2.6s-2.1-0.9-3.3-0.9c-1.2,0-2.3,0.3-3.3,0.9
			c-1,0.6-1.8,1.5-2.4,2.6s-0.9,2.4-0.9,3.9s0.3,2.8,0.9,4c0.6,1.1,1.4,2,2.4,2.6s2.1,0.9,3.3,0.9c1.2,0,2.3-0.3,3.3-0.9
			c1-0.6,1.8-1.5,2.4-2.6s0.9-2.5,0.9-4C310.3,894.3,310,893,309.4,891.9z"/>
		<path d="M317.9,890.4c0.8-1.6,1.9-2.8,3.3-3.6c1.4-0.9,3-1.3,4.7-1.3s3.2,0.4,4.5,1.1c1.3,0.8,2.2,1.7,2.8,2.9v-3.7h3.3v20.1h-3.3
			v-3.7c-0.6,1.2-1.6,2.1-2.9,2.9c-1.3,0.8-2.8,1.2-4.4,1.2c-1.7,0-3.3-0.4-4.7-1.3c-1.4-0.9-2.5-2.1-3.3-3.7
			c-0.8-1.6-1.2-3.4-1.2-5.4C316.7,893.8,317.1,892,317.9,890.4z M332.3,891.9c-0.6-1.1-1.4-2-2.4-2.6s-2.1-0.9-3.3-0.9
			c-1.2,0-2.3,0.3-3.3,0.9c-1,0.6-1.8,1.4-2.4,2.6c-0.6,1.1-0.9,2.4-0.9,4c0,1.5,0.3,2.9,0.9,4s1.4,2,2.4,2.6s2.1,0.9,3.3,0.9
			c1.2,0,2.3-0.3,3.3-0.9c1-0.6,1.8-1.5,2.4-2.6s0.9-2.5,0.9-4C333.2,894.3,332.9,893,332.3,891.9z"/>
		<path d="M347.7,886.4c1.1-0.6,2.3-1,3.9-1v3.4h-0.9c-3.6,0-5.5,2-5.5,6.1v10.9H342v-20.1h3.2v3.3
			C345.8,888,346.6,887.1,347.7,886.4z"/>
		<path d="M366.2,905.9l-7.7-8.9v8.9h-3.2v-27.1h3.2v15.9l7.5-8.9h4.5l-9.2,10l9.2,10.1H366.2z"/>
	</g>
	<g>
		<path d="M1370.3,398.4c1.5-2.7,3.5-4.7,6-6.2s5.3-2.3,8.4-2.3c3.6,0,6.8,0.9,9.5,2.7c2.7,1.8,4.7,4.3,5.9,7.6h-5.2
			c-0.9-2.1-2.2-3.6-4-4.7c-1.7-1.1-3.8-1.7-6.2-1.7c-2.3,0-4.4,0.6-6.2,1.7c-1.8,1.1-3.3,2.7-4.3,4.7s-1.6,4.4-1.6,7.2
			c0,2.7,0.5,5.1,1.6,7.1c1,2,2.5,3.6,4.3,4.7s3.9,1.7,6.2,1.7c2.4,0,4.5-0.5,6.2-1.6s3.1-2.7,4-4.7h5.2c-1.2,3.3-3.2,5.8-5.9,7.6
			c-2.7,1.8-5.9,2.7-9.5,2.7c-3.1,0-5.9-0.7-8.4-2.2s-4.5-3.5-6-6.2c-1.5-2.6-2.2-5.6-2.2-9C1368.1,404.1,1368.8,401.1,1370.3,398.4
			z"/>
		<path d="M1426.1,416.9h-14.5l-2.7,7.6h-4.6l12-33.9h5l12,33.9h-4.6L1426.1,416.9z M1424.9,413.3l-6-17.2l-6,17.2H1424.9z"/>
		<path d="M1464.7,424.5h-4.3l-17.4-27.2v27.2h-4.3v-34.2h4.3l17.4,27.1v-27.1h4.3V424.5z"/>
		<path d="M1492.6,390.4v3.6h-9.1v30.5h-4.3V394h-9.1v-3.6H1492.6z"/>
		<path d="M1502.2,394v11.4h12.1v3.7h-12.1v11.7h13.5v3.7h-17.9v-34.2h17.9v3.7L1502.2,394L1502.2,394z"/>
		<path d="M1539.8,424.5l-7.9-13.9h-5.2v13.9h-4.3v-34.1h10.7c2.5,0,4.6,0.4,6.4,1.3c1.7,0.9,3,2.1,3.9,3.6s1.3,3.2,1.3,5.1
			c0,2.3-0.7,4.4-2,6.2c-1.3,1.8-3.3,3-5.9,3.6l8.3,14.3H1539.8z M1526.7,407h6.4c2.4,0,4.1-0.6,5.3-1.8c1.2-1.2,1.8-2.8,1.8-4.8
			s-0.6-3.6-1.7-4.7c-1.2-1.1-2.9-1.7-5.3-1.7h-6.4v13H1526.7z"/>
		<path d="M1571.2,408.4c1,0.8,1.8,1.8,2.4,3s0.9,2.5,0.9,3.9c0,1.7-0.4,3.3-1.3,4.7c-0.9,1.4-2.1,2.5-3.7,3.3s-3.6,1.2-5.8,1.2
			h-12.4v-34.1h11.9c2.3,0,4.2,0.4,5.8,1.2c1.6,0.8,2.8,1.8,3.6,3.1c0.8,1.3,1.2,2.8,1.2,4.4c0,2-0.5,3.7-1.6,5s-2.5,2.3-4.2,2.9
			C1569.1,407.1,1570.2,407.6,1571.2,408.4z M1555.6,405.1h7.3c2,0,3.6-0.5,4.7-1.5s1.7-2.3,1.7-4.1s-0.6-3.1-1.7-4.1
			s-2.7-1.5-4.8-1.5h-7.2V405.1z M1568.4,419.2c1.2-1,1.8-2.5,1.8-4.4s-0.6-3.4-1.9-4.5s-3-1.6-5.1-1.6h-7.5v12h7.7
			C1565.5,420.8,1567.2,420.3,1568.4,419.2z"/>
		<path d="M1584.7,390.4V412c0,3,0.7,5.3,2.2,6.8c1.4,1.5,3.5,2.2,6,2.2s4.5-0.7,6-2.2c1.4-1.5,2.2-3.7,2.2-6.8v-21.6h4.3v21.5
			c0,2.8-0.6,5.2-1.7,7.2c-1.1,1.9-2.6,3.4-4.5,4.3s-4,1.4-6.4,1.4s-4.5-0.5-6.4-1.4s-3.4-2.4-4.5-4.3s-1.6-4.3-1.6-7.2v-21.5
			H1584.7z"/>
		<path d="M1630.2,424.5l-7.9-13.9h-5.2v13.9h-4.3v-34.1h10.7c2.5,0,4.6,0.4,6.4,1.3c1.7,0.9,3,2.1,3.9,3.6s1.3,3.2,1.3,5.1
			c0,2.3-0.7,4.4-2,6.2c-1.3,1.8-3.3,3-5.9,3.6l8.3,14.3H1630.2z M1617,407h6.4c2.4,0,4.1-0.6,5.3-1.8c1.2-1.2,1.8-2.8,1.8-4.8
			s-0.6-3.6-1.7-4.7c-1.2-1.1-2.9-1.7-5.3-1.7h-6.4v13H1617z"/>
		<path d="M1664.9,390.4l-10.8,21.2v12.9h-4.3v-12.9l-10.9-21.2h4.8l8.2,17.3l8.2-17.3H1664.9z"/>
		<path d="M1699.7,424.5l-7.9-13.9h-5.2v13.9h-4.3v-34.1h10.7c2.5,0,4.6,0.4,6.4,1.3c1.7,0.9,3,2.1,3.9,3.6s1.3,3.2,1.3,5.1
			c0,2.3-0.7,4.4-2,6.2c-1.3,1.8-3.3,3-5.9,3.6l8.3,14.3H1699.7z M1686.5,407h6.4c2.4,0,4.1-0.6,5.3-1.8c1.2-1.2,1.8-2.8,1.8-4.8
			s-0.6-3.6-1.7-4.7c-1.2-1.1-2.9-1.7-5.3-1.7h-6.4v13H1686.5z"/>
		<path d="M1717.8,422.6c-2.5-1.5-4.6-3.6-6-6.2c-1.5-2.7-2.2-5.7-2.2-9s0.7-6.3,2.2-9s3.5-4.7,6-6.2s5.4-2.2,8.4-2.2
			c3.1,0,5.9,0.7,8.5,2.2c2.5,1.5,4.5,3.5,6,6.2c1.5,2.6,2.2,5.6,2.2,9s-0.7,6.4-2.2,9s-3.5,4.7-6,6.2s-5.4,2.2-8.5,2.2
			C1723.1,424.8,1720.3,424.1,1717.8,422.6z M1732.5,419.3c1.9-1.1,3.3-2.7,4.4-4.7c1.1-2.1,1.6-4.4,1.6-7.1s-0.5-5.1-1.6-7.2
			c-1.1-2-2.5-3.6-4.4-4.7c-1.8-1.1-3.9-1.7-6.3-1.7s-4.4,0.6-6.3,1.7c-1.8,1.1-3.3,2.7-4.4,4.7s-1.6,4.4-1.6,7.2
			c0,2.7,0.5,5.1,1.6,7.1c1.1,2.1,2.5,3.6,4.4,4.7s3.9,1.7,6.3,1.7C1728.5,421,1730.6,420.4,1732.5,419.3z"/>
		<path d="M1768.2,416.9h-14.5l-2.7,7.6h-4.6l12-33.9h5l12,33.9h-4.6L1768.2,416.9z M1767,413.3l-6-17.2l-6,17.2H1767z"/>
		<path d="M1800.5,392.4c2.7,1.4,4.7,3.4,6.1,5.9c1.4,2.6,2.1,5.6,2.1,9.1s-0.7,6.5-2.1,9.1s-3.4,4.5-6.1,5.9s-5.8,2-9.4,2h-10.3
			v-34.1h10.3C1794.7,390.4,1797.8,391.1,1800.5,392.4z M1800.9,417.3c2.3-2.3,3.4-5.6,3.4-9.8c0-4.2-1.1-7.6-3.4-9.9
			c-2.3-2.4-5.5-3.6-9.8-3.6h-6v26.8h6C1795.3,420.8,1798.6,419.6,1800.9,417.3z"/>
	</g>
	<rect x="444" y="867" class="st3" width="70.5" height="9.3"/>
	<polygon class="st3" points="494.9,902.9 488.5,896.4 512.6,871.7 488.5,846.9 494.9,840.4 525.4,871.7 	"/>
	<rect x="835.8" y="1250.4" class="st1" width="111.4" height="278.9"/>
	<path class="st2" d="M1031,954.3c0,0,18.4,20.7,18.4,31l43.6-15.5c0,0-5-31.8-23.9-46.5L1031,954.3z"/>
	<rect x="1071.7" y="600.2" class="st6" width="7.3" height="7.3"/>
	<rect x="1071.7" y="585.2" class="st6" width="7.3" height="7.3"/>
	<rect x="1071.7" y="615.2" class="st6" width="7.3" height="7.3"/>
	<rect x="1071.7" y="629.7" class="st6" width="7.3" height="7.3"/>
	<polygon class="st6" points="1170.4,585.2 1166,603.4 1161.5,585.2 1149.3,585.2 1159.8,615.7 1159.8,637 1172.4,637 1172.4,615.7 
		1182.6,585.2 	"/>
	<polygon class="st6" points="1185.4,585.2 1185.4,595.9 1193.7,595.9 1193.7,637 1205.8,637 1205.8,595.9 1214,595.9 1214,585.2 	
		"/>
	<path class="st6" d="M1234.3,607.5c-3.8-3.6-6.8-5.6-6.8-9.5v-1c0-1.2,1-2.1,2.2-2.1h1.4c1.2,0,2.2,0.9,2.2,2.1v4.6h10.2v-6
		c0-5.7-4.8-10.5-10.5-10.5h-6.3c-5.7,0-10.4,4.8-10.4,10.5v3.7c0,6.8,5.3,11.6,9.8,15.4c3.7,3.4,6.7,6,6.7,9.5v1.4
		c0,1.2-0.9,2.1-2.1,2.1h-2.3c-1.2,0-2.3-0.9-2.3-2.1v-5.1h-9.7v6.3c0,5.7,4.4,10.2,10.1,10.2h7.1c5.7,0,10.4-4.6,10.4-10.2v-3.6
		C1244,616.2,1238.9,611.6,1234.3,607.5"/>
	<polygon class="st6" points="1103.1,607 1096.8,607 1096.8,585.2 1085.2,585.2 1085.2,637 1096.8,637 1096.8,617.2 1103.1,617.2 
		1103.1,637 1115.2,637 1115.2,585.2 1103.1,585.2 	"/>
	<path class="st6" d="M1148.6,626.8v-31.1c0-5.7-4.7-10.5-10.4-10.5h-8.1c-5.7,0-10.1,4.8-10.1,10.5v31.1c0,5.6,4.4,10.2,10.1,10.2
		h8.1C1143.9,637,1148.6,632.4,1148.6,626.8 M1137,625.5c0,1.2-1.2,2.3-2.4,2.3h-0.8c-1.2,0-2.1-1.1-2.1-2.3V597
		c0-1.2,0.8-2.1,2.1-2.1h0.8c1.2,0,2.4,0.9,2.4,2.1V625.5z"/>
	<path class="st7" d="M1357.1,1427.6c1.5,0,3,0.3,4.4,0.9c1.4,0.6,2.6,1.4,3.6,2.4c1,1,1.8,2.2,2.4,3.6c0.6,1.4,0.9,2.9,0.9,4.6
		c-0.1,2.6-0.9,4.9-2.6,6.8c-1.6,1.9-3.8,3.1-6.4,3.7l-42.7,9.4h51.7v11.2h-52.8c-1.7,0-3.3-0.3-4.9-0.8c-1.6-0.6-3-1.3-4.2-2.3
		c-1.2-1-2.2-2.2-2.9-3.7c-0.7-1.5-1.1-3-1.1-4.6c0.1-2.7,0.9-4.9,2.4-6.8c1.5-1.9,3.5-3,6-3.5l45.1-9.9h-53.5v-10.8H1357.1z"/>
	<path class="st7" d="M1394.3,1427.6h31.1c2.2,0,4.1,0.4,5.7,1.3c1.6,0.8,3.1,2.2,4.5,4c1.1,1.4,1.8,2.7,2.3,3.9
		c0.5,1.2,0.7,2.7,0.7,4.4v16c0,1.8-0.3,3.4-1,4.8c-0.6,1.4-1.6,2.8-3,4.1c-1,1-2,1.8-2.9,2.4c-0.9,0.6-1.9,1-3,1.2
		c-1.1,0.3-2.3,0.4-3.6,0.4h-32.4c-2.2,0-4.1-0.3-5.6-1c-1.6-0.7-3.1-1.8-4.5-3.4c-0.8-0.9-1.5-1.8-2-2.8c-0.5-0.9-0.8-1.9-1-2.8
		c-0.2-1-0.3-2.1-0.3-3.5v-16.4c0-1.9,0.4-3.5,1.2-4.9c0.8-1.4,2-2.8,3.6-4.2c1-0.9,2-1.6,3.1-2.1c1-0.5,2.1-0.9,3.2-1.1
		C1391.5,1427.7,1392.8,1427.6,1394.3,1427.6 M1427.6,1438.4h-37.3v20.5h37.3V1438.4z"/>
	<path class="st7" d="M1449.4,1440.3c0-3.8,2.1-6.5,6.3-8.3c1.4-0.6,2.8-0.9,4.3-0.9c1.5,0,3.1,0.3,4.6,1c1.5,0.7,2.9,1.6,4.2,2.8
		l28.7,25.8v-28.9h10.7v28.4c0,4.5-1.9,7.8-5.7,9.7c-1.6,0.8-3.2,1.2-4.8,1.2c-3.2,0-6.2-1.3-8.9-3.8l-28.7-25.6v28.7h-10.7V1440.3z
		"/>
	<path class="st7" d="M1533.9,1427.6h43.8v10.8h-48v4.9h48v10.9l-47.7,0.1v4.5h47.7v11.2h-43.9c-1.6,0-3.1-0.2-4.4-0.5
		c-1.3-0.3-2.5-0.8-3.6-1.5c-1.1-0.7-2.2-1.7-3.2-2.9c-1.2-1.4-2.1-2.7-2.6-4c-0.5-1.3-0.8-2.9-0.8-4.6v-15.3c0-2.1,0.3-3.9,1-5.5
		c0.7-1.6,1.7-3.1,3.3-4.5c1.5-1.4,3.1-2.3,4.7-2.8C1529.6,1427.9,1531.6,1427.6,1533.9,1427.6"/>
	<path class="st3" d="M1303.9,1481h120.6c0.6,0,1.2,0.6,1.2,1.3c0,0.7-0.6,1.3-1.2,1.3h-120.6c-0.7,0-1.3-0.6-1.3-1.3
		C1302.6,1481.6,1303.2,1481,1303.9,1481"/>
	<path class="st3" d="M1455.9,1481h120.6c0.6,0,1.2,0.6,1.2,1.3c0,0.7-0.6,1.3-1.2,1.3h-120.6c-0.7,0-1.3-0.6-1.3-1.3
		C1454.6,1481.6,1455.2,1481,1455.9,1481"/>
	<polygon class="st8" points="1434.1,1484 1444.3,1488.9 1444.3,1475.7 	"/>
	<path class="st3" d="M1336.9,1512.9c0.1-0.1,0.2-0.2,0.3-0.3c0.5-0.5,0.8-1,1.1-1.8c0.2-0.6,0.3-1.1,0.4-1.6c0-0.4,0-0.9,0-1.5
		v-4.5c0-2.5-0.9-4.3-2.7-5.6c-1.6-1.2-3.8-1.8-6.3-1.8h-25c-0.8,0-1.4,0.6-1.4,1.4v33.8c0,0.8,0.6,1.4,1.4,1.4h25.8
		c2.5,0,4.7-0.6,6.3-1.8c1.8-1.3,2.7-3.2,2.7-5.6v-7c0-1.7-0.7-3.3-2.1-4.6C1337.3,1513.2,1337.1,1513.1,1336.9,1512.9
		 M1328.5,1502.8c2.7,0,2.7,1.1,2.7,1.7v4c0,0.5,0,1.6-2.7,1.6h-17.7v-7.3H1328.5z M1310.7,1516.9h18.5c2.7,0,2.7,1,2.7,1.6v5.3
		c0,0.6,0,1.6-2.7,1.6h-18.5V1516.9z"/>
	<path class="st3" d="M1371.6,1495.8h-20.4c-2.5,0-4.6,0.9-6.4,2.6c-1.7,1.8-2.6,3.9-2.6,6.4v18.6c0,2.5,0.9,4.6,2.6,6.4
		c1.8,1.8,3.9,2.6,6.4,2.6h20.4c2.5,0,4.6-0.9,6.4-2.6c1.8-1.8,2.7-3.9,2.7-6.4v-18.6c0-2.5-0.9-4.6-2.7-6.4
		C1376.2,1496.7,1374.1,1495.8,1371.6,1495.8 M1373.2,1505.4v17.3c0,0.8-0.2,1.4-0.8,1.9c-0.5,0.5-1.1,0.8-1.9,0.8h-18.3
		c-0.8,0-1.4-0.2-1.9-0.7c-0.5-0.5-0.7-1.1-0.7-1.9v-17.3c0-0.8,0.2-1.4,0.8-2c0.5-0.5,1.1-0.7,1.9-0.7h18.3c0.8,0,1.4,0.2,1.9,0.8
		C1373,1504,1373.2,1504.6,1373.2,1505.4"/>
	<path class="st3" d="M1440,1495.8h-5c-0.6,0-1.1,0.4-1.3,0.9l-9,24.3l-8.9-23.5c-0.2-0.5-0.7-0.9-1.3-0.9l-4.9,0h0
		c-0.6,0-1.1,0.4-1.3,0.9l-8.8,23.5l-8.9-24.3c-0.2-0.5-0.7-0.9-1.3-0.9h-5c-0.5,0-0.9,0.2-1.1,0.6c-0.3,0.4-0.3,0.8-0.2,1.3
		l12.7,33.8c0.2,0.5,0.7,0.9,1.3,0.9h4.8c0.6,0,1.1-0.4,1.3-0.9l9.1-24.1l9.1,24.1c0.2,0.5,0.7,0.9,1.3,0.9h4.8
		c0.6,0,1.1-0.4,1.3-0.9l12.7-33.8c0.2-0.4,0.1-0.9-0.2-1.3C1440.9,1496,1440.5,1495.8,1440,1495.8"/>
	<path class="st3" d="M1479.1,1525.4h-23.6c-0.8,0-1.4-0.2-1.9-0.7c-0.5-0.5-0.7-1.1-0.7-1.9v-25.6c0-0.8-0.6-1.4-1.4-1.4h-4.7
		c-0.8,0-1.4,0.6-1.4,1.4v26.2c0,2.5,0.9,4.6,2.6,6.4c1.8,1.7,3.9,2.6,6.4,2.6h24.7c0.8,0,1.4-0.6,1.4-1.4v-4.2
		C1480.5,1526,1479.9,1525.4,1479.1,1525.4"/>
	<path class="st3" d="M1490.5,1495.8h-4.6c-0.8,0-1.4,0.6-1.4,1.4v33.8c0,0.8,0.6,1.4,1.4,1.4h4.6c0.8,0,1.4-0.6,1.4-1.4v-33.8
		C1491.9,1496.4,1491.3,1495.8,1490.5,1495.8"/>
	<path class="st3" d="M1532.5,1495.8h-4.7c-0.8,0-1.4,0.6-1.4,1.4v22.9l-24.3-23.8c-0.3-0.2-0.6-0.4-1-0.4h-3.7
		c-0.8,0-1.4,0.6-1.4,1.4v33.8c0,0.8,0.6,1.4,1.4,1.4h4.7c0.8,0,1.4-0.6,1.4-1.4v-23l24.3,23.9c0.3,0.2,0.6,0.4,1,0.4h3.7
		c0.8,0,1.4-0.6,1.4-1.4v-33.8C1533.9,1496.4,1533.3,1495.8,1532.5,1495.8"/>
	<path class="st3" d="M1574.7,1509.9h-13.9c-0.8,0-1.4,0.6-1.4,1.4v4.2c0,0.8,0.6,1.4,1.4,1.4h7.9v5.9c0,0.8-0.2,1.4-0.8,1.9
		c-0.5,0.5-1.1,0.7-1.9,0.7h-17.5c-0.8,0-1.4-0.2-1.9-0.7c-0.5-0.5-0.7-1.1-0.7-1.9v-17.4c0-0.8,0.2-1.4,0.7-1.9
		c0.5-0.5,1.1-0.7,1.9-0.7h23.9c0.8,0,1.4-0.6,1.4-1.4v-4.2c0-0.8-0.6-1.4-1.4-1.4h-25c-2.5,0-4.6,0.9-6.4,2.6
		c-1.7,1.7-2.6,3.9-2.6,6.4v18.6c0,2.5,0.9,4.6,2.6,6.4c1.8,1.7,3.9,2.6,6.4,2.6h19.7c2.5,0,4.6-0.9,6.4-2.6
		c1.8-1.7,2.7-3.9,2.7-6.4v-12.1C1576.1,1510.5,1575.5,1509.9,1574.7,1509.9"/>
</g>
</svg>
